<svg width="1024" height="1024" viewBox="0 0 1024 1024" fill="none" xmlns="http://www.w3.org/2000/svg">
<path d="M348.16 81.92H831.488L851.968 86.016L870.4 94.208L888.832 110.592L899.072 131.072L903.168 141.312V868.352L894.976 892.928L880.64 913.408L866.304 925.696L851.968 933.888L825.344 940.032H194.56L172.032 933.888L155.648 921.6L143.36 905.216L135.168 886.784L133.12 876.544V143.36L139.264 122.88L149.504 106.496L163.84 92.16L188.416 83.968L348.16 81.92Z" fill="#FDFDFE"/>
<path d="M188.35 80H338V940H194.5L171.95 933.828L155.55 921.483L143.25 905.024L135.05 886.507L133 876.22V139.665L139.15 119.091L149.4 102.632L163.75 88.2297L188.35 80Z" fill="#499FFE"/>
<path d="M188.5 80H337.92V940L194.56 941L172 935L155.648 923L143 906L135 888L133.12 877.5V140.36L138.5 120L148.5 103.5L163 88.5L188.5 80ZM197 102.5L180.5 108L169 116.5L163 126L155.648 140.36V812.104V879.5L162 896L174.5 910.5L184 916L194.5 920.5L337.92 920V102L197 102.5Z" fill="#2F84EC"/>
<path d="M883 779.5V806.5V820L878.982 823.145L872.966 827.906L866.732 832.139L858.93 836.371L849.405 840.075L839.01 843H340.053H338V808.327L830.797 806.16L844.392 803.04L852.914 800.395L860.434 796.692L866.732 793.517L871.5 790L874.971 787.698L878.982 783.465L883 779.5Z" fill="#EAEAEC"/>
<path d="M338 80L831.568 82L852.048 86.096L870.48 94.288L888.912 110.672L899.152 131.152L903.248 141.392V445.5V868.432L895.056 893.008L880.72 913.488L866.384 925.776L852.048 933.968L825.424 940.112H338V920L825.424 918L846.5 911.5L866.384 897.104L874.5 886L880.72 874.5L882.768 858V780L876 787L862 798L846.5 805L829.08 808.08L338 810V791L825.424 788.56L846.5 784.464L860.5 777L870.5 764L879 751.5L882.768 739V149.584L874.576 129.104L862.288 114.768L845.904 106.576L831.568 102H338V80Z" fill="#BDBEC3"/>
<path d="M883 780V820L885.75 816.625L888.5 813.25L891.25 809.875L894 806.5L897 803L900 798.5L903 792V751L898.5 761L894 767L888.5 774L883 780Z" fill="#A2A3A9"/>
<path d="M458.52 528.884L480.898 555.331L480.92 555.357L480.945 555.38L501.426 573.812L501.465 573.848L501.512 573.874L530.184 590.258L530.227 590.282L560.994 600.538L561.034 600.552L561.076 600.558L587.7 604.655L587.737 604.66H616.492L616.535 604.653L651.351 598.508L651.411 598.497L651.467 598.473L688.331 582.089L688.379 582.068L688.422 582.036L710.95 565.653L710.966 565.641L710.981 565.627L725.317 553.34L725.362 553.302L725.396 553.254L741.708 530.824L745.59 528.884H761.648L769.548 536.783V554.845L753.283 577.209L728.771 601.721L700.173 620.105L669.529 634.406L626.63 644.62H585.77L548.986 638.49L524.478 630.32L491.788 613.975L471.36 597.632L452.976 581.289L434.603 556.791L432.628 552.842V538.831L442.575 528.884H458.52Z" fill="#2B2B2E" stroke="black"/>
<path d="M315 102H338V940L315 940L315 102Z" fill="#3B91F4"/>
<path d="M149.4 821.822L151.45 819.767L153.5 817.712L155.75 815.356L158 813L163 809L174 801.274L182 797.137L190 793L198 791H338V941H194.5L171.95 934.836L155.55 922.507L143.25 906.068L135.05 887.575L133 877.301V863.211V850.669L133.881 846.656L135.132 843.395L136.383 840.135L147.35 823.877L149.4 821.822ZM198 810L185 816.5L174 823.877L166 831.5L160 840.135L155.75 850.669V879.5L161.7 895.795L174.42 910.367L179.926 913.878L187.934 917.892L194.5 920.452L338 920V810H198Z" fill="#2870DC"/>
<path d="M712.704 325.632H729.088L741.376 333.824L745.472 342.016V423.936L741.376 432.128L729.088 440.32L710.656 438.272L700.416 430.08L696.32 419.84V344.064L702.464 333.824L712.704 325.632Z" fill="#2B2B2E"/>
<path d="M475.136 325.632L493.568 327.68L503.808 337.92L505.856 344.064V421.888L499.712 432.128L489.472 440.32L471.04 438.272L460.8 430.08L456.704 421.888V342.016L468.992 327.68L475.136 325.632Z" fill="#2B2B2E"/>
<path d="M315 791H338V810H315V791Z" fill="#256CD4"/>
<path d="M315 920H338V941H315V920Z" fill="#256CD4"/>
<path d="M315 80.116H338V102H315V80.116Z" fill="#256CD4"/>
</svg>
