<svg width="24" height="24" viewBox="0 0 24 24" fill="none" xmlns="http://www.w3.org/2000/svg">
<rect width="24" height="24" fill="white"/>
<path fill-rule="evenodd" clip-rule="evenodd" d="M19.1071 2.01708L19.1027 2.03417L18.6483 2.0441L18.1938 2.05403L18.1889 2.07607L18.1841 2.09814L17.9934 2.09825L17.8027 2.09837L17.7655 2.12769L17.7283 2.15702H17.5868H17.4452V2.17476C17.4452 2.18451 17.3838 2.19882 17.3087 2.20654C17.2337 2.21427 17.1722 2.22746 17.1722 2.23586C17.1722 2.24426 17.1215 2.25427 17.0596 2.25812L16.9469 2.2651L16.9415 2.28956L16.9361 2.31403H16.8342H16.7324L16.7281 2.33313C16.7257 2.34361 16.6813 2.35814 16.6295 2.36538C16.5777 2.37262 16.5352 2.38493 16.5352 2.39272C16.5352 2.40051 16.4931 2.41144 16.4415 2.41702L16.3478 2.42714L16.3429 2.44911L16.3381 2.47105H16.2492H16.1604L16.1553 2.49405L16.1502 2.51708L16.0697 2.52585C16.0255 2.5307 15.9892 2.54128 15.9892 2.54938C15.9892 2.55749 15.9483 2.57021 15.8982 2.57764C15.8482 2.5851 15.8072 2.59949 15.8072 2.60964V2.62807H15.7306H15.654L15.6465 2.65751L15.6391 2.68695H15.5801C15.5477 2.68695 15.5212 2.69515 15.5212 2.70516C15.5212 2.71517 15.4891 2.72944 15.4497 2.73686C15.4104 2.74428 15.3782 2.75817 15.3782 2.76771C15.3782 2.77727 15.3517 2.78508 15.3193 2.78508H15.2604L15.2529 2.81452L15.2455 2.84396H15.1894H15.1334L15.1285 2.86608C15.1258 2.87825 15.0932 2.89262 15.0559 2.89802C15.0187 2.90342 14.9882 2.91501 14.9882 2.92377C14.9882 2.93252 14.9619 2.94565 14.9297 2.95293C14.8976 2.96022 14.8712 2.97401 14.8712 2.98359C14.8712 2.99315 14.8512 3.00098 14.8268 3.00098C14.8024 3.00098 14.7803 3.01038 14.7778 3.02188C14.7753 3.03337 14.7484 3.04777 14.7182 3.0539C14.688 3.06002 14.6632 3.0717 14.6632 3.07984C14.6632 3.08799 14.6369 3.10063 14.6047 3.10791C14.5726 3.11519 14.5462 3.1283 14.5462 3.13706C14.5462 3.14581 14.5228 3.15863 14.4942 3.16553C14.4656 3.17244 14.4422 3.18681 14.4422 3.19749C14.4422 3.20815 14.4218 3.21688 14.3967 3.21688C14.3717 3.21688 14.3512 3.22561 14.3512 3.23627C14.3512 3.24695 14.3278 3.26132 14.2992 3.26822C14.2706 3.27513 14.2472 3.28848 14.2472 3.2979C14.2472 3.30732 14.2295 3.31501 14.2078 3.31501H14.1684L14.1609 3.34446L14.1535 3.3739H14.1042H14.055L14.0475 3.40334L14.0401 3.43278H14.0071C13.989 3.43278 13.9742 3.44063 13.9742 3.45023C13.9742 3.4598 13.9538 3.47346 13.9287 3.48055C13.9037 3.48763 13.8832 3.50186 13.8832 3.51217C13.8832 3.52247 13.8661 3.53091 13.8452 3.53091C13.8242 3.53091 13.7983 3.54416 13.7876 3.56035C13.7769 3.57655 13.7531 3.58979 13.7347 3.58979C13.7163 3.58979 13.7012 3.59792 13.7012 3.60787C13.7012 3.6178 13.6837 3.63176 13.6622 3.63886C13.6408 3.64597 13.6232 3.65992 13.6232 3.66985C13.6232 3.6798 13.612 3.68793 13.5982 3.68793C13.5844 3.68793 13.5643 3.70118 13.5536 3.71737C13.5429 3.73356 13.5197 3.74681 13.5021 3.74681H13.47L13.4625 3.77625L13.4551 3.80569H13.4221C13.404 3.80569 13.3892 3.81382 13.3892 3.82377C13.3892 3.8337 13.3717 3.84765 13.3502 3.85476C13.3288 3.86186 13.3112 3.87582 13.3112 3.88575C13.3112 3.8957 13.3 3.90383 13.2862 3.90383C13.2724 3.90383 13.2523 3.91708 13.2416 3.93327C13.2309 3.94946 13.2129 3.96271 13.2017 3.96271C13.1904 3.96271 13.1812 3.97136 13.1812 3.98196C13.1812 3.99254 13.1666 4.00675 13.1487 4.01352C13.1309 4.02029 13.1162 4.03372 13.1162 4.04334C13.1162 4.05297 13.105 4.06084 13.0912 4.06084C13.0774 4.06084 13.0573 4.07409 13.0466 4.09028C13.0359 4.10648 13.0127 4.11973 12.9951 4.11973H12.963L12.9555 4.14917C12.9514 4.16536 12.9391 4.17861 12.9281 4.17861C12.9172 4.17861 12.9082 4.18744 12.9082 4.19823C12.9082 4.20903 12.8936 4.21786 12.8757 4.21786H12.8432V4.2473V4.27674H12.8056H12.768L12.7605 4.30618L12.7531 4.33562H12.7201C12.702 4.33562 12.6872 4.34446 12.6872 4.35525C12.6872 4.36605 12.6783 4.37488 12.6673 4.37488C12.6564 4.37488 12.6441 4.38813 12.6399 4.40432L12.6325 4.43376H12.6014H12.5702V4.4632V4.49264H12.5442C12.5299 4.49264 12.5182 4.50051 12.5182 4.51015C12.5182 4.51976 12.5036 4.53319 12.4857 4.53996C12.4679 4.54673 12.4532 4.56094 12.4532 4.57152C12.4532 4.58212 12.4443 4.59078 12.4333 4.59078C12.4224 4.59078 12.4101 4.60402 12.4059 4.62022C12.4018 4.63641 12.3871 4.64966 12.3732 4.64966C12.3594 4.64966 12.3351 4.67036 12.3194 4.69566C12.3036 4.72098 12.2747 4.74764 12.255 4.75494C12.2353 4.76222 12.2192 4.77684 12.2192 4.78742C12.2192 4.79802 12.2111 4.80667 12.2011 4.80667C12.1912 4.80667 12.1797 4.81992 12.1755 4.83611C12.1714 4.85231 12.1591 4.86555 12.1481 4.86555C12.1372 4.86555 12.1282 4.87421 12.1282 4.88481C12.1282 4.89539 12.1136 4.9096 12.0957 4.91637C12.0779 4.92314 12.0632 4.93657 12.0632 4.94618C12.0632 4.95582 12.0548 4.96369 12.0444 4.96369C12.034 4.96369 12.0204 4.97743 12.0142 4.99423L12.0029 5.02477L11.9592 4.98932C11.9352 4.96983 11.9034 4.93554 11.8886 4.91315C11.8738 4.89078 11.8515 4.86675 11.839 4.8598C11.8265 4.85286 11.8162 4.83806 11.8162 4.82691C11.8162 4.81578 11.8022 4.80667 11.7851 4.80667H11.754L11.7465 4.77723C11.7424 4.76104 11.7301 4.74779 11.7191 4.74779C11.7082 4.74779 11.6992 4.73914 11.6992 4.72854C11.6992 4.71796 11.6846 4.70375 11.6667 4.69698C11.6489 4.69021 11.6342 4.67678 11.6342 4.66716C11.6342 4.65753 11.6261 4.64966 11.6161 4.64966C11.6062 4.64966 11.5947 4.63641 11.5905 4.62022C11.5864 4.60402 11.5741 4.59078 11.5631 4.59078C11.5522 4.59078 11.5432 4.58194 11.5432 4.57115C11.5432 4.56035 11.5349 4.55152 11.5247 4.55152C11.5145 4.55152 11.4983 4.53976 11.4888 4.5254C11.4793 4.51101 11.4555 4.49319 11.4359 4.48577C11.4163 4.47833 11.4002 4.46359 11.4002 4.45301C11.4002 4.44241 11.3915 4.43376 11.3807 4.43376C11.37 4.43376 11.3612 4.42563 11.3612 4.41568C11.3612 4.40575 11.3437 4.3918 11.3222 4.38469C11.3008 4.37759 11.2832 4.36434 11.2832 4.35525C11.2832 4.34616 11.2657 4.33291 11.2442 4.32581C11.2228 4.3187 11.2052 4.30475 11.2052 4.29482C11.2052 4.28487 11.1971 4.27674 11.1871 4.27674C11.1772 4.27674 11.1657 4.26349 11.1615 4.2473L11.1541 4.21786H11.1211C11.103 4.21786 11.0882 4.20974 11.0882 4.19978C11.0882 4.18985 11.0707 4.1759 11.0492 4.16879C11.0278 4.16169 11.0102 4.14773 11.0102 4.1378C11.0102 4.12785 11.0011 4.11973 10.9898 4.11973C10.9786 4.11973 10.9606 4.10648 10.9499 4.09028C10.9392 4.07409 10.9191 4.06084 10.9053 4.06084C10.8915 4.06084 10.8802 4.05272 10.8802 4.04277C10.8802 4.03284 10.8627 4.01888 10.8412 4.01178C10.8198 4.00467 10.8022 3.99072 10.8022 3.98078C10.8022 3.97083 10.7882 3.96271 10.7711 3.96271H10.74L10.7325 3.93327L10.7251 3.90383H10.6921C10.674 3.90383 10.6592 3.8957 10.6592 3.88575C10.6592 3.87582 10.6417 3.86186 10.6202 3.85476C10.5988 3.84765 10.5812 3.8337 10.5812 3.82377C10.5812 3.81382 10.57 3.80569 10.5562 3.80569C10.5424 3.80569 10.5223 3.79244 10.5116 3.77625C10.5009 3.76006 10.4777 3.74681 10.4601 3.74681H10.428L10.4205 3.71737L10.4131 3.68793H10.3801C10.362 3.68793 10.3472 3.6798 10.3472 3.66985C10.3472 3.65992 10.3297 3.64597 10.3082 3.63886C10.2868 3.63176 10.2692 3.6178 10.2692 3.60787C10.2692 3.59792 10.2515 3.58979 10.2298 3.58979H10.1904L10.1829 3.56035L10.1755 3.53091H10.1379C10.1172 3.53091 10.1002 3.52279 10.1002 3.51284C10.1002 3.50291 10.0827 3.48895 10.0612 3.48184C10.0398 3.47474 10.0222 3.46078 10.0222 3.45085C10.0222 3.4409 9.99884 3.43278 9.97024 3.43278H9.91824V3.40334V3.3739H9.87832C9.85635 3.3739 9.82961 3.36065 9.81888 3.34446C9.80816 3.32826 9.78225 3.31501 9.76132 3.31501C9.74038 3.31501 9.72324 3.30734 9.72324 3.29798C9.72324 3.2886 9.6985 3.27592 9.66828 3.26979C9.63804 3.26367 9.61122 3.24926 9.60869 3.23778C9.60615 3.22628 9.5875 3.21688 9.56724 3.21688C9.54699 3.21688 9.52833 3.20748 9.5258 3.19598C9.52326 3.18449 9.49644 3.17009 9.46621 3.16396C9.43598 3.15784 9.41124 3.14569 9.41124 3.137C9.41124 3.12828 9.38492 3.11519 9.35274 3.10791C9.32057 3.10063 9.29424 3.08683 9.29424 3.07725C9.29424 3.06769 9.27816 3.05959 9.25849 3.05923C9.23882 3.0589 9.21138 3.04565 9.19751 3.02979C9.18363 3.01395 9.1534 3.00098 9.13034 3.00098C9.10728 3.00098 9.08622 2.99103 9.08353 2.97886C9.08083 2.96669 9.04818 2.95233 9.01095 2.94693C8.9737 2.94153 8.94324 2.93056 8.94324 2.92255C8.94324 2.91456 8.9185 2.903 8.88828 2.89688C8.85804 2.89076 8.83122 2.87635 8.82869 2.86487C8.82615 2.85337 8.8066 2.84396 8.78523 2.84396C8.76387 2.84396 8.73761 2.83072 8.72688 2.81452L8.70738 2.78508H8.64982C8.61815 2.78508 8.59224 2.77741 8.59224 2.76801C8.59224 2.75863 8.56464 2.74624 8.53092 2.74049C8.49719 2.73476 8.46746 2.72035 8.46483 2.7085L8.46007 2.68695H8.40515H8.35021L8.32498 2.65814L8.29974 2.62932L8.23149 2.6287C8.19395 2.62834 8.16324 2.6201 8.16324 2.61036C8.16324 2.60063 8.12814 2.58652 8.08524 2.579C8.04234 2.57148 8.00724 2.55737 8.00724 2.54764C8.00724 2.5379 7.97841 2.52993 7.94317 2.52993H7.8791L7.8596 2.50049L7.8401 2.47105H7.74926H7.65841L7.65387 2.45048C7.65137 2.43916 7.61579 2.42467 7.57479 2.41829C7.53378 2.41191 7.50024 2.40008 7.50024 2.39201C7.50024 2.38394 7.45824 2.37376 7.40689 2.36938L7.31354 2.36141L7.30831 2.33772L7.30307 2.31403H7.18825H7.07342L7.06801 2.28956L7.06261 2.2651L6.94993 2.25812C6.88796 2.25427 6.83725 2.24446 6.83725 2.23631C6.83725 2.22817 6.77728 2.21533 6.704 2.20777C6.63072 2.20022 6.5688 2.18569 6.56642 2.17552L6.56208 2.15702H6.41529H6.26851L6.21325 2.12758L6.15798 2.09814H5.9267H5.69542L5.69 2.0736L5.68459 2.04907H4.91977H4.15495L4.14943 2.07395C4.1464 2.08764 4.13568 2.11131 4.12559 2.12652L4.10725 2.15421V2.94911V3.744L4.08683 3.77486L4.06639 3.80569H3.69683H3.32725V3.82532C3.32725 3.83611 3.3097 3.84495 3.28825 3.84495H3.24925V3.87439C3.24925 3.89058 3.24111 3.90383 3.23115 3.90383C3.22121 3.90383 3.20939 3.92591 3.20491 3.9529C3.20042 3.97988 3.19101 4.00196 3.184 4.00196H3.17125V11.2247V18.4475H3.19075C3.20147 18.4475 3.21025 18.4607 3.21025 18.4769C3.21025 18.4931 3.21652 18.5064 3.22417 18.5064C3.23184 18.5064 3.24688 18.5196 3.25761 18.5358L3.27711 18.5653H3.32167C3.34619 18.5653 3.36625 18.5732 3.36625 18.583V18.6007L3.82992 18.6075L4.29359 18.6143L4.299 18.6389L4.30442 18.6634H4.58825H4.87208L4.87642 18.6825L4.88075 18.7015L5.0985 18.7149C5.21827 18.7223 5.31625 18.7347 5.31625 18.7425C5.31625 18.7502 5.40218 18.7605 5.5072 18.7653L5.69815 18.7739L5.70328 18.7972L5.70842 18.8204H5.86225H6.01608L6.02089 18.8422L6.0257 18.864L6.17473 18.8744C6.25669 18.8801 6.32679 18.8919 6.33052 18.9005C6.33425 18.9091 6.39713 18.9224 6.47027 18.93C6.54341 18.9376 6.60325 18.9504 6.60325 18.9586C6.60325 18.9667 6.65396 18.9765 6.71593 18.9804L6.82861 18.9874L6.83401 19.0118L6.83942 19.0363H6.95425H7.06908L7.07355 19.0566L7.07802 19.0768L7.19164 19.0889C7.25412 19.0956 7.30524 19.1076 7.30524 19.1157C7.30524 19.1238 7.35596 19.1336 7.41793 19.1374L7.53061 19.1444L7.53601 19.1689L7.54142 19.1933H7.63674H7.73207L7.73731 19.217L7.74254 19.2407L7.83589 19.2487C7.88724 19.2531 7.92924 19.2634 7.92924 19.2716C7.92924 19.2799 7.96259 19.2908 8.00334 19.2959L8.07743 19.3052L8.08242 19.3278L8.08741 19.3503H8.17624H8.26507L8.27016 19.3733L8.27524 19.3964L8.35573 19.4051C8.40001 19.41 8.43624 19.4208 8.43624 19.4293C8.43624 19.4377 8.47134 19.4508 8.51424 19.4583C8.55714 19.4658 8.59224 19.4788 8.59224 19.4872C8.59224 19.4956 8.62559 19.5067 8.66634 19.5118L8.74043 19.5211L8.74542 19.5437L8.75041 19.5662H8.82624H8.90207L8.90696 19.5884C8.90965 19.6005 8.94231 19.6149 8.97954 19.6203C9.01678 19.6257 9.04724 19.6367 9.04724 19.6447C9.04724 19.6527 9.07484 19.664 9.10856 19.6697C9.1423 19.6754 9.17203 19.6899 9.17466 19.7017L9.17941 19.7233H9.25076H9.3221L9.3416 19.7527L9.3611 19.7821H9.40567C9.43018 19.7821 9.45024 19.7898 9.45024 19.7992C9.45024 19.8086 9.47498 19.8212 9.50521 19.8274C9.53544 19.8335 9.56226 19.8479 9.5648 19.8594C9.56733 19.8709 9.59274 19.8803 9.62126 19.8803H9.6731L9.6926 19.9097L9.7121 19.9392H9.75666C9.78118 19.9392 9.80124 19.947 9.80124 19.9565C9.80124 19.9661 9.82757 19.9799 9.85974 19.9872C9.89192 19.9945 9.91824 20.0087 9.91824 20.0189C9.91824 20.029 9.93239 20.0373 9.94968 20.0373C9.98948 20.0373 10.0222 20.056 10.0222 20.0786C10.0222 20.0883 9.99056 20.0962 9.95182 20.0962H9.88141L9.87617 20.0725L9.87095 20.0488L9.7776 20.0408C9.72625 20.0364 9.68424 20.0259 9.68424 20.0174C9.68424 20.0089 9.64914 19.9957 9.60624 19.9882C9.56334 19.9807 9.52824 19.9666 9.52824 19.9569C9.52824 19.9471 9.49461 19.9389 9.45349 19.9385L9.37874 19.9379L9.35351 19.9091L9.32828 19.8803H9.23434H9.14041L9.13607 19.8612C9.13369 19.8507 9.08934 19.8362 9.03749 19.8289C8.98566 19.8217 8.94324 19.8094 8.94324 19.8015C8.94324 19.7937 8.89817 19.7829 8.84309 19.7776L8.74293 19.7679L8.738 19.7456L8.73307 19.7233H8.60524H8.47741L8.47272 19.702L8.46803 19.6808L8.33514 19.6697C8.26204 19.6637 8.20224 19.6525 8.20224 19.6449C8.20224 19.6373 8.13351 19.6252 8.04949 19.618L7.89674 19.6048L7.89241 19.5855L7.88807 19.5662H7.73424H7.58042L7.57549 19.544L7.57057 19.5217L7.41191 19.5118C7.32464 19.5064 7.25325 19.4953 7.25325 19.4871C7.25325 19.4789 7.16842 19.4658 7.06475 19.458C6.96107 19.4501 6.87625 19.4371 6.87625 19.429C6.87625 19.4208 6.79288 19.4099 6.691 19.4046C6.58912 19.3993 6.48928 19.385 6.46915 19.3727L6.43256 19.3503H6.18748H5.94242L5.93766 19.3288L5.9329 19.3073L5.58883 19.2967C5.39958 19.2909 5.24182 19.2797 5.23825 19.2719C5.23467 19.2641 5.09447 19.253 4.92669 19.2472L4.62163 19.2366L4.61686 19.215L4.61208 19.1933H3.93067H3.24925V19.1737C3.24925 19.1629 3.24047 19.1541 3.22975 19.1541C3.21902 19.1541 3.21025 19.1629 3.21025 19.1737V19.1933H3.01525H2.82025V19.1639C2.82025 19.1477 2.81147 19.1344 2.80075 19.1344H2.78125V19.0281V18.9218L2.79537 18.9147L2.80947 18.9076L2.80789 12.3135L2.8063 5.71933L2.79378 5.7128C2.78689 5.70919 2.78125 5.6853 2.78125 5.65971V5.61317L2.73619 5.60039C2.71141 5.59339 2.57372 5.59078 2.43021 5.5946L2.16683 5.59494H2.00381C2.01048 5.59494 2.02451 5.59494 2.00381 5.59494C1.99714 5.59494 2.00125 5.73031 2.00125 5.74684C2.00125 5.76338 2.00125 5.77215 2.00125 5.79747V5.83148V12.9323V20.0331L2.02075 20.0444C2.03148 20.0506 2.04025 20.0736 2.04025 20.0956V20.1354H2.05883C2.06903 20.1354 2.08762 20.1509 2.10013 20.1698L2.12287 20.2041L2.29605 20.211L2.46925 20.2178V20.2355V20.2532L3.298 20.2548L4.12675 20.2565L4.20475 20.2749C4.24765 20.285 4.48019 20.2986 4.7215 20.3051C4.96282 20.3116 5.16025 20.3234 5.16025 20.3314C5.16025 20.3393 5.29918 20.3523 5.46898 20.3603C5.6388 20.3682 5.78066 20.3814 5.78423 20.3897C5.78782 20.3979 5.9253 20.4095 6.08975 20.4154L6.38875 20.4262L6.42534 20.4476L6.46194 20.4691H6.66151H6.86108L6.86542 20.4876L6.86975 20.5061L7.068 20.52C7.17703 20.5276 7.26625 20.5404 7.26625 20.5484C7.26625 20.5564 7.35791 20.5662 7.46993 20.5701L7.67361 20.5772L7.67901 20.6016L7.68442 20.6261H7.86424H8.04407L8.04909 20.6488L8.0541 20.6715L8.22567 20.6808C8.32004 20.686 8.39724 20.6965 8.39724 20.7042C8.39724 20.7119 8.46304 20.7239 8.54345 20.7309L8.68967 20.7435L8.69403 20.7633L8.69841 20.7831H8.8127H8.92698L8.98224 20.8126L9.03751 20.842H9.14638H9.25524V20.8601C9.25524 20.87 9.31374 20.8844 9.38524 20.892C9.45674 20.8997 9.51524 20.9125 9.51524 20.9204C9.51524 20.9284 9.57493 20.9392 9.64788 20.9445L9.78051 20.9542L9.78546 20.9766L9.79041 20.999H9.89332H9.99624V21.0172C9.99624 21.0272 10.0489 21.0415 10.1132 21.0491C10.1776 21.0567 10.2302 21.0693 10.2302 21.0771C10.2302 21.0849 10.2814 21.0968 10.3438 21.1034L10.4575 21.1155L10.4619 21.1358L10.4664 21.156H10.5563H10.6462V21.1763C10.6462 21.1874 10.6565 21.2022 10.669 21.2092C10.6815 21.2161 10.7046 21.2423 10.7204 21.2674C10.7361 21.2925 10.7527 21.3131 10.7571 21.3131C10.7616 21.3131 10.7828 21.3395 10.8042 21.3719C10.8257 21.4043 10.8489 21.4308 10.8559 21.4308C10.8628 21.4308 10.882 21.4529 10.8986 21.4799C10.9152 21.5069 10.9383 21.5289 10.95 21.5289C10.9617 21.5289 10.9712 21.5422 10.9712 21.5584C10.9712 21.5746 10.98 21.5878 10.9907 21.5878C11.0015 21.5878 11.0102 21.5967 11.0102 21.6075C11.0102 21.6183 11.025 21.6271 11.0431 21.6271H11.0761L11.0835 21.6565C11.0877 21.6727 11.1044 21.686 11.1207 21.686C11.1371 21.686 11.1538 21.6992 11.1579 21.7154L11.1654 21.7448H11.1983C11.2164 21.7448 11.2312 21.753 11.2312 21.7629C11.2312 21.7729 11.2488 21.7868 11.2702 21.7939C11.2917 21.801 11.3092 21.815 11.3092 21.8249C11.3092 21.8349 11.327 21.843 11.3486 21.843H11.3881L11.3955 21.8724L11.403 21.9019H11.4591C11.4899 21.9019 11.517 21.9105 11.5194 21.921C11.5218 21.9314 11.5661 21.946 11.618 21.9532C11.6698 21.9605 11.7122 21.974 11.7122 21.9832V22H11.9982H12.2842V21.9832C12.2842 21.974 12.3266 21.9611 12.3783 21.9545C12.4301 21.948 12.4744 21.9334 12.4769 21.9222C12.4794 21.911 12.5003 21.9019 12.5233 21.9019C12.5464 21.9019 12.5766 21.8889 12.5905 21.8731C12.6044 21.8572 12.6318 21.8439 12.6515 21.8436C12.6712 21.8433 12.6872 21.8349 12.6872 21.8249C12.6872 21.815 12.7048 21.801 12.7262 21.7939C12.7477 21.7868 12.7652 21.7729 12.7652 21.7629C12.7652 21.753 12.7828 21.7448 12.8042 21.7448H12.8432V21.7154V21.686H12.8822C12.9037 21.686 12.9212 21.6773 12.9212 21.6667C12.9212 21.6561 12.9359 21.6419 12.9537 21.6352C12.9716 21.6284 12.9862 21.615 12.9862 21.6053C12.9862 21.5957 12.9952 21.5878 13.0061 21.5878C13.0171 21.5878 13.0294 21.5746 13.0335 21.5584C13.0377 21.5422 13.0492 21.5289 13.0591 21.5289C13.0691 21.5289 13.0772 21.5157 13.0772 21.4995C13.0772 21.4833 13.086 21.4701 13.0967 21.4701C13.1075 21.4701 13.1162 21.4612 13.1162 21.4504C13.1162 21.4396 13.125 21.4308 13.1357 21.4308C13.1465 21.4308 13.1552 21.4176 13.1552 21.4014C13.1552 21.3852 13.164 21.3719 13.1747 21.3719C13.1855 21.3719 13.1942 21.3587 13.1942 21.3425C13.1942 21.3263 13.203 21.3131 13.2137 21.3131C13.2245 21.3131 13.2332 21.3048 13.2332 21.2947C13.2332 21.2847 13.2459 21.2704 13.2613 21.263C13.2767 21.2556 13.3022 21.2285 13.318 21.2028L13.3467 21.156H13.4384H13.5301L13.5351 21.1331L13.5402 21.1101L13.6532 21.1012C13.7154 21.0963 13.7662 21.0858 13.7662 21.0779C13.7662 21.0701 13.8116 21.0579 13.867 21.0508C13.9224 21.0437 13.9697 21.0292 13.9721 21.0185L13.9764 20.999H14.1042H14.2321L14.2375 20.9745L14.2429 20.9501L14.3556 20.9431C14.4175 20.9393 14.4682 20.929 14.4682 20.9204C14.4682 20.9117 14.5297 20.8983 14.6047 20.8906C14.6798 20.8829 14.7412 20.8688 14.7412 20.8593V20.842H14.8623H14.9833L15.0085 20.8132L15.0337 20.7844L15.1659 20.7837L15.2981 20.7831L15.3024 20.7638L15.3067 20.7445L15.4595 20.7314C15.5435 20.7242 15.6122 20.7119 15.6122 20.7041C15.6122 20.6964 15.6777 20.6859 15.7578 20.681L15.9033 20.6719L15.9084 20.649L15.9134 20.6261H16.1062H16.2991L16.3041 20.6032L16.3092 20.5803L16.4872 20.5712C16.5851 20.5662 16.6652 20.5558 16.6652 20.5481C16.6652 20.5404 16.7661 20.5284 16.8895 20.5214L17.1137 20.5086L17.118 20.4888L17.1224 20.4691H17.3332H17.544L17.5584 20.4474L17.5728 20.4257L17.8503 20.4152C18.0029 20.4094 18.1307 20.3978 18.1343 20.3895C18.1379 20.3812 18.2827 20.368 18.456 20.3601C18.6294 20.3522 18.7712 20.3393 18.7712 20.3314C18.7712 20.3235 18.957 20.3127 19.184 20.3075L19.5967 20.2979L19.6333 20.2755L19.6699 20.2532H20.3906H21.1112V20.2349V20.2165L21.5054 20.2103L21.8995 20.2041L21.9344 20.1473C21.9535 20.116 21.9692 20.0785 21.9692 20.0639C21.9692 20.0492 21.9751 20.0373 21.9822 20.0373H21.9952V12.9028V5.59494C21.9952 5.64557 21.9845 5.59494 21.9952 5.59494C22.006 5.59494 21.9952 5.57874 21.9952 5.59494C21.9952 5.61113 21.9845 5.59494 21.9952 5.59494C22.0054 5.59494 21.9952 5.57874 21.9952 5.59494C21.9952 5.62025 21.9851 5.59494 21.9952 5.59494L21.5871 5.5947C21.4318 5.59091 21.2915 5.60049 21.26 5.60049H21.1892V5.8481V6.05063V6.08243V12.609V19.1357L21.1665 19.1483C21.154 19.1553 21.1393 19.1705 21.134 19.1821L21.1242 19.2031L21.1136 19.1783L21.1029 19.1534L20.6945 19.1532L20.286 19.1529L20.2815 19.1731L20.2771 19.1933H19.7917H19.3064L19.3015 19.2157L19.2965 19.238L18.9559 19.2479C18.7685 19.2533 18.6152 19.264 18.6152 19.2717C18.6152 19.2794 18.4736 19.2904 18.3005 19.2962L17.9857 19.3066L17.9809 19.3285L17.9761 19.3503H17.77H17.5639L17.5273 19.3727C17.5072 19.385 17.4074 19.3993 17.3055 19.4046C17.2036 19.4099 17.1202 19.4209 17.1202 19.4291C17.1202 19.4373 17.0325 19.4504 16.9252 19.4583L16.7302 19.4725V19.49V19.5074H16.5893H16.4484L16.3846 19.5366L16.3207 19.5658L16.1821 19.566L16.0434 19.5662L16.0389 19.5867L16.0344 19.6072L15.8948 19.6191C15.818 19.6257 15.7552 19.6373 15.7552 19.6448C15.7552 19.6524 15.6954 19.6637 15.6223 19.6697L15.4895 19.6808L15.4848 19.702L15.4801 19.7233H15.3522H15.2244L15.2195 19.7456L15.2146 19.7679L15.1144 19.7776C15.0593 19.7829 15.0142 19.7939 15.0142 19.802C15.0142 19.8101 14.9645 19.823 14.9037 19.8306C14.843 19.8383 14.7932 19.8526 14.7932 19.8624C14.7932 19.8722 14.7556 19.8803 14.7097 19.8803H14.6261L14.6066 19.9097L14.5871 19.9392H14.5082C14.4648 19.9392 14.4292 19.9471 14.4292 19.9569C14.4292 19.9666 14.3941 19.9807 14.3512 19.9882C14.3083 19.9957 14.2732 20.0099 14.2732 20.0196C14.2732 20.0293 14.2386 20.0373 14.1962 20.0373H14.1191L14.0996 20.0667L14.0801 20.0962H14.0218H13.9634L13.9568 20.1207L13.9502 20.1452L13.9364 20.1158C13.9155 20.071 13.9265 20.0477 13.972 20.041C13.9947 20.0376 14.0132 20.0276 14.0132 20.0187C14.0132 20.0098 14.0454 19.9965 14.0847 19.9891C14.1241 19.9816 14.1562 19.9674 14.1562 19.9574C14.1562 19.9474 14.1742 19.9392 14.1962 19.9392C14.2181 19.9392 14.2449 19.9259 14.2556 19.9097L14.2751 19.8803H14.3327C14.3643 19.8803 14.3902 19.872 14.3902 19.8618C14.3902 19.8517 14.4166 19.8375 14.4487 19.8302C14.4809 19.8229 14.5072 19.8103 14.5072 19.8021C14.5072 19.7939 14.5348 19.7826 14.5686 19.7768C14.6023 19.7711 14.632 19.7567 14.6347 19.7448L14.6394 19.7233H14.7152H14.7911L14.796 19.7011C14.7986 19.689 14.8313 19.6746 14.8685 19.6692C14.9058 19.6638 14.9362 19.6528 14.9362 19.6447C14.9362 19.6366 14.9696 19.6258 15.0103 19.6207L15.0844 19.6114L15.0894 19.5888L15.0944 19.5662H15.1572H15.2201L15.2251 19.5437L15.2301 19.5211L15.3041 19.5118C15.3449 19.5067 15.3782 19.4952 15.3782 19.4863C15.3782 19.4774 15.4133 19.4641 15.4562 19.4567C15.4991 19.4494 15.5342 19.4357 15.5342 19.4263C15.5342 19.4169 15.5578 19.4092 15.5867 19.4092C15.6155 19.4092 15.6601 19.396 15.6857 19.3798C15.7114 19.3636 15.7575 19.3503 15.7882 19.3503C15.819 19.3503 15.846 19.3417 15.8484 19.3312C15.8508 19.3208 15.8952 19.3062 15.947 19.299C15.9988 19.2918 16.0412 19.2793 16.0412 19.2713C16.0412 19.2633 16.0804 19.253 16.1282 19.2484L16.2151 19.2401L16.2202 19.2167L16.2254 19.1933H16.3207H16.4161L16.4214 19.1693L16.4267 19.1454L16.5264 19.1378C16.5813 19.1336 16.6262 19.1236 16.6262 19.1156C16.6262 19.1076 16.6745 19.0954 16.7334 19.0885C16.7924 19.0817 16.8426 19.0671 16.845 19.0562L16.8494 19.0363L16.9621 19.0357L17.0747 19.0351L17.1 19.0062L17.1252 18.9774H17.2397H17.3542V18.9597C17.3542 18.9499 17.4157 18.9356 17.4907 18.9279C17.5658 18.9202 17.6272 18.9069 17.6272 18.8984C17.6272 18.8899 17.6867 18.8799 17.7594 18.8762L17.8916 18.8695L17.897 18.8449L17.9024 18.8204H18.0627H18.2231L18.2279 18.7986L18.2327 18.7768L18.3785 18.7664C18.4586 18.7607 18.5242 18.7498 18.5242 18.7422C18.5242 18.7346 18.6193 18.7225 18.7355 18.7153L18.9467 18.7022L18.9511 18.6828L18.9554 18.6634H19.2652H19.5751L19.5804 18.6391L19.5858 18.6148L20.134 18.6075C20.4355 18.6034 20.6822 18.5932 20.6822 18.5848C20.6822 18.5764 20.6969 18.564 20.7147 18.5572C20.7326 18.5504 20.7472 18.5362 20.7472 18.5256C20.7472 18.515 20.7553 18.5064 20.7652 18.5064C20.7912 18.5064 20.7989 18.4429 20.7991 18.2267L20.7992 18.0353H20.8122H20.8252V11.0285V4.02159H20.8136C20.8073 4.02159 20.7984 3.99937 20.7939 3.97223C20.784 3.91325 20.7476 3.84495 20.7259 3.84495C20.7174 3.84495 20.7085 3.83635 20.7061 3.82587L20.7017 3.80677L20.341 3.79331C20.1426 3.78589 19.9802 3.7724 19.9802 3.76332C19.9802 3.75423 19.9598 3.74681 19.9347 3.74681H19.8892V2.94116V2.13553L19.8548 2.08738L19.8204 2.03925H19.6598H19.4992V2.01963V2H19.3053H19.1114L19.1071 2.01708ZM5.51407 2.49364L5.51906 2.51623L5.78165 2.52577C5.92608 2.53101 6.04425 2.54202 6.04425 2.55025C6.04425 2.55845 6.12322 2.57154 6.21975 2.57935C6.31627 2.58716 6.39525 2.60132 6.39525 2.61081V2.62807H6.51061H6.62598L6.68125 2.65751L6.73651 2.68695H6.83779H6.93908L6.94342 2.70646C6.9458 2.71717 7.00187 2.73176 7.068 2.73884C7.13413 2.74591 7.18825 2.75821 7.18825 2.76618C7.18825 2.77413 7.23025 2.78424 7.2816 2.78862L7.37495 2.79658L7.38018 2.82027L7.38542 2.84396H7.48074H7.57607L7.58123 2.86734L7.5864 2.8907L7.67333 2.89906C7.72113 2.90365 7.76024 2.91419 7.76024 2.92247C7.76024 2.93076 7.79827 2.94367 7.84474 2.95119C7.89122 2.9587 7.92924 2.97297 7.92924 2.98292C7.92924 2.99286 7.95445 3.00098 7.98526 3.00098H8.04128L8.06651 3.02979L8.09174 3.05861L8.15999 3.05923L8.22824 3.05986V3.07882C8.22824 3.08924 8.25749 3.10363 8.29324 3.11078C8.32899 3.11794 8.35824 3.1315 8.35824 3.1409C8.35824 3.1503 8.38206 3.158 8.41117 3.158H8.4641L8.4836 3.18744L8.5031 3.21688H8.56609H8.62907L8.63396 3.239C8.63665 3.25117 8.66931 3.26553 8.70654 3.27093C8.74378 3.27633 8.77424 3.2873 8.77424 3.29531C8.77424 3.3033 8.79898 3.31486 8.82921 3.32098C8.85945 3.3271 8.88626 3.34151 8.8888 3.35299L8.89341 3.3739H8.94943H9.00546L9.01295 3.40334L9.02042 3.43278H9.07284C9.10166 3.43278 9.12524 3.44063 9.12524 3.45023C9.12524 3.4598 9.14572 3.47346 9.17074 3.48055C9.19577 3.48763 9.21624 3.50186 9.21624 3.51217C9.21624 3.52247 9.24257 3.53091 9.27474 3.53091H9.33324V3.56035V3.58979H9.37224C9.39369 3.58979 9.41124 3.59762 9.41124 3.60718C9.41124 3.61676 9.43757 3.63056 9.46974 3.63784C9.50192 3.64512 9.52824 3.65937 9.52824 3.6695C9.52824 3.67965 9.54538 3.68793 9.56632 3.68793C9.58725 3.68793 9.61316 3.70118 9.62388 3.71737C9.63461 3.73356 9.65884 3.74681 9.67774 3.74681C9.69664 3.74681 9.72088 3.76006 9.7316 3.77625C9.74233 3.79244 9.76238 3.80569 9.77616 3.80569C9.78996 3.80569 9.80124 3.81339 9.80124 3.82281C9.80124 3.83223 9.82464 3.84557 9.85324 3.85248C9.88184 3.85939 9.90524 3.87376 9.90524 3.88444C9.90524 3.89509 9.92132 3.9041 9.94099 3.90446C9.96066 3.90479 9.9881 3.91804 10.002 3.9339C10.0159 3.94974 10.0378 3.96271 10.0507 3.96271C10.0637 3.96271 10.0742 3.97083 10.0742 3.98078C10.0742 3.99072 10.0918 4.00467 10.1132 4.01178C10.1347 4.01888 10.1522 4.03284 10.1522 4.04277C10.1522 4.05272 10.1673 4.06084 10.1857 4.06084C10.2041 4.06084 10.2279 4.07409 10.2386 4.09028C10.2493 4.10648 10.2746 4.11973 10.2948 4.11973H10.3315L10.3389 4.14917L10.3464 4.17861H10.3793C10.3974 4.17861 10.4122 4.18744 10.4122 4.19823C10.4122 4.20903 10.4239 4.21786 10.4382 4.21786H10.4642V4.2473V4.27674H10.5149H10.5655L10.5729 4.30618C10.5771 4.32237 10.5894 4.33562 10.6003 4.33562C10.6113 4.33562 10.6202 4.34375 10.6202 4.3537C10.6202 4.36363 10.6378 4.37759 10.6592 4.38469C10.6807 4.3918 10.6982 4.40575 10.6982 4.41568C10.6982 4.42563 10.7122 4.43376 10.7294 4.43376H10.7605L10.7679 4.4632L10.7754 4.49264H10.8069H10.8385L10.8459 4.52208C10.8501 4.53827 10.8624 4.55152 10.8733 4.55152C10.8843 4.55152 10.8932 4.56035 10.8932 4.57115C10.8932 4.58194 10.908 4.59078 10.9261 4.59078H10.9591L10.9665 4.62022C10.9707 4.63641 10.9874 4.64966 11.0037 4.64966C11.0201 4.64966 11.0368 4.6629 11.0409 4.6791L11.0484 4.70854H11.0799H11.1115L11.1189 4.73798C11.1231 4.75417 11.1354 4.76742 11.1463 4.76742C11.1573 4.76742 11.1662 4.77625 11.1662 4.78705C11.1662 4.79784 11.1802 4.80667 11.1973 4.80667H11.2285L11.2359 4.83611C11.2401 4.85231 11.2524 4.86555 11.2633 4.86555C11.2743 4.86555 11.2832 4.87368 11.2832 4.88363C11.2832 4.89356 11.3008 4.90752 11.3222 4.91462C11.3437 4.92173 11.3612 4.93472 11.3612 4.94349C11.3612 4.95227 11.3759 4.96499 11.3937 4.97176C11.4116 4.97853 11.4262 4.99274 11.4262 5.00332C11.4262 5.01392 11.4358 5.02257 11.4475 5.02257C11.4592 5.02257 11.4823 5.04465 11.4989 5.07164C11.5154 5.09863 11.5412 5.12071 11.556 5.12071C11.5709 5.12071 11.5864 5.13395 11.5905 5.15015C11.5947 5.16634 11.6062 5.17959 11.6161 5.17959C11.6261 5.17959 11.6342 5.18824 11.6342 5.19884C11.6342 5.20942 11.6503 5.22404 11.67 5.23132C11.6897 5.23863 11.7186 5.26528 11.7344 5.2906C11.7501 5.3159 11.7661 5.3366 11.77 5.3366C11.7738 5.3366 11.7887 5.35182 11.8031 5.3704L11.8292 5.4042V6.33213V7.26006H11.9257H12.0221L12.0297 7.28459L12.0372 7.30913L12.0448 7.28459C12.049 7.27111 12.069 7.26006 12.0893 7.26006C12.1095 7.26006 12.1354 7.2547 12.1467 7.24815L12.1672 7.23623L12.1674 6.33058C12.1676 5.40536 12.1699 5.3366 12.2013 5.3366C12.2111 5.3366 12.2192 5.32795 12.2192 5.31735C12.2192 5.30677 12.2339 5.29256 12.2517 5.28579C12.2696 5.27902 12.2842 5.26559 12.2842 5.25598C12.2842 5.24634 12.2932 5.23847 12.3041 5.23847C12.3151 5.23847 12.3274 5.22522 12.3315 5.20903L12.339 5.17959H12.3701H12.4012V5.15015V5.12071H12.4272C12.4415 5.12071 12.4532 5.11284 12.4532 5.1032C12.4532 5.09358 12.4679 5.08016 12.4857 5.07339C12.5036 5.06661 12.5182 5.0524 12.5182 5.04183C12.5182 5.03123 12.5299 5.02257 12.5442 5.02257H12.5702V4.99313V4.96369H12.6027C12.6206 4.96369 12.6352 4.95486 12.6352 4.94406C12.6352 4.93327 12.6442 4.92444 12.6551 4.92444C12.6661 4.92444 12.6784 4.91119 12.6825 4.895L12.69 4.86555H12.7215H12.7531L12.7605 4.83611C12.7647 4.81992 12.7814 4.80667 12.7977 4.80667C12.8141 4.80667 12.8308 4.79342 12.8349 4.77723C12.8391 4.76104 12.8514 4.74779 12.8623 4.74779C12.8733 4.74779 12.8822 4.73967 12.8822 4.72972C12.8822 4.71978 12.8998 4.70583 12.9212 4.69872C12.9427 4.69162 12.9602 4.67766 12.9602 4.66773C12.9602 4.65778 12.969 4.64966 12.9797 4.64966C12.9905 4.64966 12.9992 4.64153 12.9992 4.63158C12.9992 4.62165 13.0168 4.60769 13.0382 4.60059C13.0597 4.59348 13.0772 4.58024 13.0772 4.57115C13.0772 4.56206 13.0948 4.54881 13.1162 4.54171C13.1377 4.5346 13.1552 4.52065 13.1552 4.51072C13.1552 4.50077 13.1699 4.49264 13.1877 4.49264H13.2202V4.4632C13.2202 4.44701 13.2294 4.43376 13.2407 4.43376C13.2519 4.43376 13.2699 4.42051 13.2806 4.40432C13.2913 4.38813 13.3114 4.37488 13.3252 4.37488C13.339 4.37488 13.3502 4.36605 13.3502 4.35525C13.3502 4.34446 13.365 4.33562 13.3831 4.33562H13.4161L13.4235 4.30618C13.4277 4.28999 13.4444 4.27674 13.4607 4.27674C13.4771 4.27674 13.4938 4.26349 13.4979 4.2473L13.5054 4.21786H13.5383C13.5564 4.21786 13.5712 4.21001 13.5712 4.20041C13.5712 4.19083 13.5917 4.17717 13.6167 4.17009C13.6418 4.163 13.6622 4.14877 13.6622 4.13847C13.6622 4.12816 13.677 4.11973 13.6951 4.11973H13.7281L13.7355 4.09028L13.743 4.06084H13.7806C13.8013 4.06084 13.8182 4.05272 13.8182 4.04277C13.8182 4.03284 13.8358 4.01888 13.8572 4.01178C13.8787 4.00467 13.8962 3.99072 13.8962 3.98078C13.8962 3.97083 13.9134 3.96271 13.9343 3.96271C13.9552 3.96271 13.9812 3.94946 13.9919 3.93327C14.0026 3.91708 14.0258 3.90383 14.0434 3.90383H14.0755L14.0829 3.87439L14.0904 3.84495H14.1298C14.1515 3.84495 14.1692 3.83611 14.1692 3.82532C14.1692 3.81452 14.184 3.80569 14.2021 3.80569H14.2351L14.2425 3.77625L14.25 3.74681H14.2992H14.3485L14.3559 3.71737L14.3634 3.68793H14.4028C14.4245 3.68793 14.4422 3.68024 14.4422 3.67081C14.4422 3.66139 14.4656 3.64805 14.4942 3.64114C14.5228 3.63423 14.5462 3.61986 14.5462 3.60919C14.5462 3.59853 14.5642 3.58979 14.5862 3.58979C14.6081 3.58979 14.6349 3.57655 14.6456 3.56035C14.6563 3.54416 14.6852 3.53091 14.7097 3.53091C14.7342 3.53091 14.7542 3.52218 14.7542 3.51152C14.7542 3.50084 14.7776 3.48648 14.8062 3.47957C14.8348 3.47266 14.8582 3.45931 14.8582 3.44989C14.8582 3.44047 14.8783 3.43278 14.9028 3.43278C14.9273 3.43278 14.9562 3.41953 14.9669 3.40334L14.9864 3.3739H15.0382H15.0901L15.0948 3.35235C15.0975 3.34049 15.1272 3.32608 15.1609 3.32035C15.1946 3.3146 15.2222 3.3034 15.2222 3.29543C15.2222 3.28746 15.247 3.27592 15.2772 3.26979C15.3074 3.26367 15.3343 3.24926 15.3368 3.23778L15.3414 3.21688H15.4104H15.4795L15.4869 3.18744L15.4944 3.158H15.5533C15.5857 3.158 15.6122 3.15019 15.6122 3.14063C15.6122 3.13109 15.6444 3.11719 15.6837 3.10977C15.7231 3.10236 15.7552 3.08809 15.7552 3.07808C15.7552 3.06807 15.7801 3.0598 15.8105 3.05974C15.8409 3.05967 15.8825 3.04642 15.903 3.0303L15.9402 3.00098H16.0091H16.0781L16.0831 2.97839L16.0881 2.9558L16.1621 2.94652C16.2029 2.94141 16.2362 2.93052 16.2362 2.92234C16.2362 2.91413 16.2754 2.90365 16.3232 2.89906L16.4101 2.8907L16.4152 2.86734L16.4204 2.84396H16.5157H16.6111L16.6165 2.81949L16.6219 2.79503L16.7346 2.78805C16.7965 2.7842 16.8472 2.77445 16.8472 2.76636C16.8472 2.75827 16.8984 2.74622 16.9608 2.73955L17.0745 2.72746L17.0789 2.7072L17.0834 2.68695H17.1838H17.2843L17.3095 2.65814L17.3347 2.62932L17.468 2.6287L17.6012 2.62807V2.61017V2.59225L17.7572 2.57819C17.843 2.57046 17.9132 2.55774 17.9132 2.54991C17.9132 2.54208 18.0139 2.53089 18.137 2.52504L18.3608 2.51441L18.3656 2.49274L18.3704 2.47105H18.9608H19.5512V2.49886C19.5512 2.51415 19.5585 2.53182 19.5675 2.53812L19.5837 2.54956L19.566 2.56175L19.5483 2.57394L19.566 2.59119L19.5837 2.60844L19.5642 2.62956L19.5447 2.65068L19.561 2.66063C19.5802 2.6724 19.5831 2.78508 19.5642 2.78508H19.5512V3.10893V3.43278H19.5642H19.5772V9.69382V15.9549H19.5642H19.5512V16.2493V16.5437H19.5642H19.5772V16.7792V17.0147H19.5642C19.5571 17.0147 19.5512 17.028 19.5512 17.0442V17.0736H19.5057C19.4807 17.0736 19.4602 17.0814 19.4602 17.091V17.1083L19.2262 17.1227C19.0975 17.1306 18.9922 17.1436 18.9922 17.1516C18.9922 17.1597 18.9261 17.1707 18.8453 17.1761C18.7645 17.1814 18.6859 17.1959 18.6707 17.2082C18.6554 17.2206 18.5987 17.2306 18.5446 17.2306H18.4462V17.2488C18.4462 17.2588 18.3936 17.2731 18.3292 17.2807C18.2649 17.2883 18.2122 17.3009 18.2122 17.3088C18.2122 17.3165 18.164 17.3286 18.105 17.3354C18.0461 17.3423 17.9959 17.3568 17.9935 17.3678L17.9891 17.3876H17.9067H17.8244L17.8192 17.4113L17.8139 17.435L17.7206 17.443C17.6692 17.4474 17.6272 17.4576 17.6272 17.4658C17.6272 17.474 17.5863 17.4868 17.5362 17.4942C17.4862 17.5017 17.4452 17.5161 17.4452 17.5262V17.5447H17.3617H17.2781L17.2586 17.5741L17.2391 17.6035H17.1797C17.147 17.6035 17.1202 17.6118 17.1202 17.622C17.1202 17.6321 17.0793 17.6465 17.0292 17.654C16.9792 17.6614 16.9382 17.674 16.9382 17.682C16.9382 17.69 16.9106 17.7013 16.8769 17.707C16.8432 17.7127 16.8134 17.7271 16.8108 17.739L16.8061 17.7605H16.7357H16.6652V17.7795C16.6652 17.7899 16.636 17.8043 16.6002 17.8115C16.5645 17.8186 16.5352 17.8312 16.5352 17.8393C16.5352 17.8475 16.5031 17.8602 16.4637 17.8677C16.4244 17.8751 16.3922 17.8893 16.3922 17.8994C16.3922 17.9094 16.3674 17.9178 16.337 17.9182L16.2817 17.9188L16.2565 17.9476C16.2426 17.9635 16.2119 17.9764 16.1883 17.9764C16.1646 17.9764 16.1452 17.9847 16.1452 17.9947C16.1452 18.0047 16.1131 18.0189 16.0737 18.0264C16.0344 18.0338 16.0022 18.0477 16.0022 18.0572C16.0022 18.0668 15.9862 18.0749 15.9665 18.0752C15.9468 18.0755 15.9194 18.0888 15.9055 18.1047C15.8916 18.1205 15.8614 18.1335 15.8383 18.1335C15.8153 18.1335 15.7943 18.1429 15.7918 18.1544C15.7893 18.1658 15.7624 18.1803 15.7322 18.1864C15.702 18.1925 15.6772 18.204 15.6772 18.212C15.6772 18.2199 15.6525 18.2314 15.6223 18.2376C15.592 18.2437 15.5652 18.2581 15.5627 18.2696C15.5601 18.2811 15.5358 18.2905 15.5086 18.2905H15.459L15.4515 18.3199L15.4441 18.3494H15.4046C15.383 18.3494 15.3652 18.3582 15.3652 18.369C15.3652 18.3798 15.3481 18.3886 15.3272 18.3886C15.3062 18.3886 15.2803 18.4019 15.2696 18.4181C15.2589 18.4342 15.2346 18.4475 15.2157 18.4475C15.1968 18.4475 15.1726 18.4607 15.1619 18.4769C15.1512 18.4931 15.1223 18.5064 15.0978 18.5064C15.0733 18.5064 15.0532 18.5151 15.0532 18.5258C15.0532 18.5364 15.0298 18.5508 15.0012 18.5577C14.9726 18.5646 14.9492 18.578 14.9492 18.5874C14.9492 18.5968 14.9315 18.6045 14.9098 18.6045H14.8704L14.8629 18.634L14.8555 18.6634H14.8048C14.777 18.6634 14.7542 18.6715 14.7542 18.6815C14.7542 18.6914 14.7367 18.7054 14.7152 18.7125C14.6938 18.7196 14.6762 18.7335 14.6762 18.7435C14.6762 18.7534 14.6585 18.7615 14.6368 18.7615H14.5974L14.5899 18.791L14.5825 18.8204H14.5332H14.484L14.4765 18.8499L14.4691 18.8793H14.4361C14.418 18.8793 14.4032 18.8877 14.4032 18.898C14.4032 18.9083 14.3828 18.9226 14.3577 18.9297C14.3327 18.9367 14.3122 18.9504 14.3122 18.96C14.3122 18.9696 14.2974 18.9774 14.2793 18.9774H14.2464L14.2389 19.0069L14.2315 19.0363H14.2003C14.1832 19.0363 14.1692 19.0447 14.1692 19.0551C14.1692 19.0654 14.1488 19.0796 14.1237 19.0867C14.0987 19.0938 14.0782 19.1074 14.0782 19.117C14.0782 19.1266 14.0634 19.1344 14.0453 19.1344H14.0124L14.0049 19.1639L13.9975 19.1933H13.9654C13.9478 19.1933 13.9246 19.2066 13.9139 19.2228C13.9032 19.239 13.8831 19.2522 13.8693 19.2522C13.8555 19.2522 13.8442 19.2601 13.8442 19.2697C13.8442 19.2793 13.8296 19.2928 13.8117 19.2995C13.7939 19.3063 13.7792 19.3205 13.7792 19.3311C13.7792 19.3417 13.7615 19.3503 13.7398 19.3503H13.7004L13.6929 19.3798L13.6855 19.4092H13.6543C13.6372 19.4092 13.6232 19.4174 13.6232 19.4273C13.6232 19.4372 13.6057 19.4512 13.5842 19.4583C13.5628 19.4654 13.5452 19.4794 13.5452 19.4893C13.5452 19.4992 13.534 19.5074 13.5202 19.5074C13.5064 19.5074 13.4863 19.5206 13.4756 19.5368C13.4649 19.553 13.4417 19.5662 13.4241 19.5662H13.392L13.3845 19.5957L13.3771 19.6251H13.3455H13.314L13.3065 19.6546C13.3024 19.6708 13.2901 19.684 13.2791 19.684C13.2682 19.684 13.2592 19.6928 13.2592 19.7036C13.2592 19.7144 13.2452 19.7233 13.2281 19.7233H13.197L13.1895 19.7527C13.1854 19.7689 13.1731 19.7821 13.1621 19.7821C13.1512 19.7821 13.1422 19.79 13.1422 19.7996C13.1422 19.8093 13.1276 19.8227 13.1097 19.8295C13.0919 19.8362 13.0772 19.8504 13.0772 19.861C13.0772 19.8716 13.0597 19.8803 13.0382 19.8803H12.9992V19.9097V19.9392H12.9732C12.9589 19.9392 12.9472 19.9478 12.9472 19.9584C12.9472 19.969 12.9326 19.9832 12.9147 19.99C12.8969 19.9967 12.8822 20.0102 12.8822 20.0198C12.8822 20.0294 12.8733 20.0373 12.8623 20.0373C12.8514 20.0373 12.8391 20.0505 12.8349 20.0667C12.8308 20.0829 12.8141 20.0962 12.7977 20.0962C12.7814 20.0962 12.7647 20.1094 12.7605 20.1256C12.7564 20.1418 12.7409 20.1551 12.726 20.1551C12.7112 20.1551 12.6854 20.1771 12.6689 20.2041C12.6523 20.2311 12.6292 20.2532 12.6175 20.2532C12.6058 20.2532 12.5962 20.2618 12.5962 20.2724C12.5962 20.283 12.5816 20.2972 12.5637 20.304C12.5459 20.3108 12.5312 20.3235 12.5312 20.3323C12.5312 20.341 12.5137 20.354 12.4922 20.3611C12.4708 20.3682 12.4532 20.3822 12.4532 20.3921C12.4532 20.4021 12.4445 20.4102 12.4337 20.4102C12.423 20.4102 12.4142 20.4235 12.4142 20.4396V20.4691H12.3882C12.3739 20.4691 12.3622 20.4777 12.3622 20.4883C12.3622 20.4989 12.3476 20.5131 12.3297 20.5199C12.3119 20.5267 12.2972 20.5401 12.2972 20.5497C12.2972 20.5594 12.2885 20.5672 12.2777 20.5672C12.267 20.5672 12.2582 20.5805 12.2582 20.5967V20.6261H12.2333C12.2196 20.6261 12.2058 20.6372 12.2026 20.6506L12.1968 20.6752L12.1853 20.6588L12.1737 20.6425L12.1703 17.9905L12.1668 15.3385L12.1508 15.3231C12.142 15.3147 12.066 15.3076 11.982 15.3075L11.8292 15.3072L11.829 17.9617L11.8288 20.6163L11.8151 20.6457L11.8013 20.6752L11.7947 20.6506C11.791 20.6372 11.7804 20.6261 11.7711 20.6261C11.7617 20.6261 11.7507 20.6129 11.7465 20.5967C11.7424 20.5805 11.7301 20.5672 11.7191 20.5672C11.7082 20.5672 11.6992 20.5594 11.6992 20.5497C11.6992 20.5401 11.6846 20.5267 11.6667 20.5199C11.6489 20.5131 11.6342 20.4989 11.6342 20.4883C11.6342 20.4777 11.6261 20.4691 11.6161 20.4691C11.6062 20.4691 11.5947 20.4558 11.5905 20.4396C11.5864 20.4235 11.5709 20.4102 11.556 20.4102C11.5412 20.4102 11.5161 20.3895 11.5004 20.3642C11.4846 20.3389 11.4557 20.3122 11.436 20.3049C11.4163 20.2976 11.4002 20.283 11.4002 20.2724C11.4002 20.2618 11.3915 20.2532 11.3807 20.2532C11.37 20.2532 11.3612 20.2453 11.3612 20.2357C11.3612 20.2261 11.3461 20.2125 11.3276 20.2055C11.3091 20.1985 11.2807 20.171 11.2644 20.1445L11.2348 20.0962H11.2005H11.1662V20.0667V20.0373H11.1402C11.1259 20.0373 11.1142 20.0286 11.1142 20.018C11.1142 20.0075 11.0996 19.9932 11.0817 19.9865C11.0639 19.9797 11.0492 19.9663 11.0492 19.9567C11.0492 19.947 11.0403 19.9392 11.0293 19.9392C11.0184 19.9392 11.0061 19.9259 11.0019 19.9097L10.9945 19.8803H10.9633C10.9462 19.8803 10.9322 19.8714 10.9322 19.8606C10.9322 19.8499 10.9233 19.841 10.9123 19.841C10.9014 19.841 10.8891 19.8278 10.8849 19.8116L10.8775 19.7821H10.8459H10.8144L10.8069 19.7527L10.7995 19.7233H10.7684C10.7512 19.7233 10.7372 19.7151 10.7372 19.7052C10.7372 19.6953 10.7197 19.6813 10.6982 19.6742C10.6768 19.6671 10.6592 19.6538 10.6592 19.6447C10.6592 19.6357 10.6417 19.6224 10.6202 19.6153C10.5988 19.6082 10.5812 19.5942 10.5812 19.5843C10.5812 19.5744 10.5725 19.5662 10.5617 19.5662C10.551 19.5662 10.5422 19.5581 10.5422 19.5482C10.5422 19.5382 10.5247 19.5243 10.5032 19.5172C10.4818 19.5101 10.4642 19.4968 10.4642 19.4877C10.4642 19.4786 10.4467 19.4654 10.4252 19.4583C10.4038 19.4512 10.3862 19.4372 10.3862 19.4273C10.3862 19.4174 10.375 19.4092 10.3612 19.4092C10.3474 19.4092 10.3273 19.396 10.3166 19.3798C10.3059 19.3636 10.2879 19.3503 10.2767 19.3503C10.2654 19.3503 10.2562 19.3416 10.2562 19.331C10.2562 19.3203 10.2328 19.3059 10.2042 19.299C10.1756 19.2921 10.1522 19.2787 10.1522 19.2693C10.1522 19.2599 10.141 19.2522 10.1272 19.2522C10.1134 19.2522 10.0933 19.239 10.0826 19.2228C10.0719 19.2066 10.0487 19.1933 10.0311 19.1933H9.99902L9.99154 19.1639L9.98406 19.1344H9.95115C9.93305 19.1344 9.91824 19.1256 9.91824 19.1148C9.91824 19.104 9.90696 19.0952 9.89316 19.0952C9.87938 19.0952 9.86031 19.0834 9.8508 19.0691C9.84127 19.0547 9.81745 19.0369 9.79786 19.0294C9.77827 19.022 9.76224 19.0073 9.76224 18.9967C9.76224 18.9861 9.74469 18.9774 9.72324 18.9774C9.70179 18.9774 9.68424 18.969 9.68424 18.9587C9.68424 18.9484 9.66377 18.9342 9.63874 18.9271C9.61372 18.92 9.59324 18.9063 9.59324 18.8967C9.59324 18.8871 9.57862 18.8793 9.56074 18.8793H9.52824V18.8499V18.8204H9.47113H9.41402L9.40654 18.791L9.39906 18.7615H9.36615C9.34805 18.7615 9.33324 18.7527 9.33324 18.7419C9.33324 18.7311 9.32196 18.7223 9.30817 18.7223C9.29439 18.7223 9.27433 18.709 9.2636 18.6928L9.2441 18.6634H9.19256H9.14102L9.13354 18.634L9.12606 18.6045H9.09315C9.07505 18.6045 9.06024 18.5962 9.06024 18.5861C9.06024 18.576 9.03392 18.5617 9.00174 18.5544C8.96957 18.5471 8.94324 18.5333 8.94324 18.5238C8.94324 18.5142 8.92632 18.5064 8.90563 18.5064H8.86802L8.86054 18.4769L8.85306 18.4475H8.80204H8.75103L8.74354 18.4181L8.73606 18.3886H8.68365H8.63124V18.369C8.63124 18.3582 8.61996 18.3494 8.60617 18.3494C8.59239 18.3494 8.57233 18.3361 8.5616 18.3199L8.5421 18.2905H8.49056H8.43903L8.43154 18.261L8.42406 18.2316H8.37165C8.34283 18.2316 8.31924 18.2233 8.31924 18.2132C8.31924 18.203 8.29292 18.1888 8.26074 18.1815C8.22857 18.1742 8.20224 18.1604 8.20224 18.1509C8.20224 18.1413 8.18519 18.1335 8.16432 18.1335C8.14347 18.1335 8.12422 18.1235 8.12153 18.1113C8.11884 18.0992 8.08471 18.0847 8.0457 18.0792C8.00667 18.0736 7.97119 18.0608 7.96687 18.0507C7.96254 18.0406 7.93474 18.0274 7.90512 18.0215C7.87549 18.0154 7.85124 18.004 7.85124 17.9961C7.85124 17.9881 7.8265 17.9766 7.79628 17.9705C7.76604 17.9644 7.73922 17.9499 7.73669 17.9385L7.73207 17.9176H7.67467C7.64309 17.9176 7.61724 17.9099 7.61724 17.9005C7.61724 17.8911 7.58799 17.8775 7.55224 17.8703C7.51649 17.8632 7.48724 17.8499 7.48724 17.8409C7.48724 17.8318 7.45679 17.82 7.41954 17.8146C7.38231 17.8092 7.34965 17.7948 7.34696 17.7827L7.34207 17.7605H7.26625H7.19042L7.18542 17.738L7.18043 17.7154L7.10635 17.7061C7.06559 17.701 7.03225 17.6899 7.03225 17.6815C7.03225 17.6731 6.99715 17.6601 6.95425 17.6526C6.91135 17.6451 6.87625 17.631 6.87625 17.6212C6.87625 17.6115 6.84177 17.6035 6.79964 17.6035H6.72303L6.71554 17.5741L6.70807 17.5447H6.61665H6.52525V17.5266C6.52525 17.5166 6.48722 17.5024 6.44075 17.4949C6.39427 17.4873 6.35625 17.4744 6.35625 17.4661C6.35625 17.4579 6.31713 17.4473 6.26933 17.4427L6.1824 17.4344L6.17724 17.411L6.17208 17.3876H6.07675H5.98142L5.97708 17.3682C5.9747 17.3574 5.9274 17.3429 5.872 17.3358C5.81659 17.3288 5.77125 17.3168 5.77125 17.3091C5.77125 17.3015 5.71433 17.2901 5.64478 17.2839L5.51832 17.2725L5.5137 17.2516L5.50908 17.2306L5.40292 17.2304L5.29675 17.2302L5.23293 17.201L5.16911 17.1717H5.04118H4.91325V17.1543V17.1369L4.71825 17.1227L4.52325 17.1084V17.091C4.52325 17.0814 4.5091 17.0736 4.49181 17.0736C4.47452 17.0736 4.45112 17.0682 4.43981 17.0617L4.41925 17.0498V9.76041V2.47105H4.96417H5.50908L5.51407 2.49364ZM4.08683 4.2487L4.10725 4.27955V10.8253V17.371L4.14692 17.4309L4.18659 17.4908L4.24442 17.5007C4.27622 17.5061 4.30225 17.5182 4.30225 17.5276V17.5447L4.4875 17.5449L4.67275 17.5452L4.72475 17.5735L4.77675 17.6018L4.91 17.6027L5.04325 17.6035V17.6208C5.04325 17.6303 5.11052 17.6444 5.19275 17.6522C5.27497 17.6599 5.34225 17.6734 5.34225 17.682C5.34225 17.6907 5.39587 17.7008 5.46142 17.7046L5.58059 17.7115L5.586 17.736L5.59142 17.7605H5.71925H5.84708L5.85142 17.78C5.8538 17.7907 5.90109 17.8053 5.9565 17.8123C6.0119 17.8194 6.05725 17.8315 6.05725 17.8391C6.05725 17.8468 6.09965 17.859 6.1515 17.8662C6.20334 17.8735 6.2477 17.888 6.25008 17.8985C6.25247 17.909 6.28791 17.9176 6.32884 17.9176H6.40328L6.42851 17.9464L6.45375 17.9752L6.5285 17.9758C6.56962 17.9762 6.60325 17.984 6.60325 17.9933C6.60325 18.0026 6.63679 18.0154 6.67779 18.0218C6.71879 18.0282 6.75437 18.0427 6.75687 18.054L6.76142 18.0746L6.82858 18.0752L6.89575 18.0758L6.92098 18.1047L6.94621 18.1335H7.00765H7.06908L7.07396 18.1556C7.07665 18.1678 7.10931 18.1821 7.14654 18.1875C7.18379 18.1929 7.21425 18.205 7.21425 18.2145C7.21425 18.2239 7.2435 18.2316 7.27925 18.2316H7.34424V18.261V18.2905H7.40167H7.45907L7.46407 18.3131L7.46906 18.3357L7.54314 18.3449C7.5839 18.35 7.61724 18.3608 7.61724 18.3688C7.61724 18.3769 7.64198 18.3885 7.67221 18.3946C7.70245 18.4007 7.72927 18.4151 7.7318 18.4266C7.73434 18.4381 7.75974 18.4475 7.78826 18.4475H7.8401L7.8596 18.4769C7.87033 18.4931 7.89916 18.5064 7.92367 18.5064C7.94818 18.5064 7.96824 18.5142 7.96824 18.5237C7.96824 18.5333 8.00042 18.5472 8.03974 18.5546C8.07907 18.562 8.11124 18.5763 8.11124 18.5863C8.11124 18.5963 8.13172 18.6045 8.15674 18.6045H8.20224V18.634V18.6634H8.25966H8.31707L8.32169 18.6843C8.32422 18.6958 8.35104 18.7102 8.38128 18.7163C8.4115 18.7224 8.43624 18.734 8.43624 18.742C8.43624 18.75 8.45964 18.7622 8.48824 18.7691C8.51684 18.776 8.54024 18.7903 8.54024 18.801C8.54024 18.8117 8.55821 18.8204 8.58017 18.8204C8.60214 18.8204 8.62888 18.8337 8.6396 18.8499C8.65033 18.866 8.67916 18.8793 8.70367 18.8793C8.72818 18.8793 8.74824 18.8874 8.74824 18.8974C8.74824 18.9073 8.76579 18.9213 8.78724 18.9284C8.80869 18.9355 8.82624 18.9494 8.82624 18.9594C8.82624 18.9693 8.85257 18.9774 8.88474 18.9774H8.94324V19.0069V19.0363H8.98116C9.00202 19.0363 9.02115 19.0457 9.02369 19.0572C9.02622 19.0687 9.05304 19.0831 9.08328 19.0892C9.1135 19.0953 9.13824 19.108 9.13824 19.1174C9.13824 19.1268 9.15305 19.1344 9.17115 19.1344H9.20406L9.21154 19.1639L9.21902 19.1933H9.25771H9.29641L9.29107 19.2179C9.28815 19.2314 9.26792 19.2451 9.24612 19.2484L9.20651 19.2543L9.1863 19.2238L9.1661 19.1933H9.09506H9.02402L9.01654 19.1639L9.00906 19.1344H8.95015C8.91775 19.1344 8.89124 19.1265 8.89124 19.1167C8.89124 19.107 8.85614 19.0929 8.81324 19.0854C8.77034 19.0779 8.73524 19.0637 8.73524 19.054C8.73524 19.0443 8.70454 19.036 8.66699 19.0357L8.59874 19.0351L8.57351 19.0062L8.54828 18.9774H8.47276C8.43123 18.9774 8.39724 18.9699 8.39724 18.9606C8.39724 18.9514 8.35508 18.9379 8.30355 18.9307C8.25202 18.9234 8.20668 18.9101 8.2028 18.901C8.19892 18.892 8.16094 18.8803 8.11839 18.8751L8.04106 18.8656L8.03606 18.843L8.03107 18.8204H7.93574H7.84041L7.83601 18.8005C7.83359 18.7895 7.79216 18.775 7.74393 18.7682C7.6957 18.7614 7.65624 18.7496 7.65624 18.7419C7.65624 18.7342 7.61383 18.722 7.56199 18.7147C7.51015 18.7075 7.46579 18.693 7.46342 18.6825L7.45907 18.6634H7.36374H7.26842L7.26335 18.6405L7.25828 18.6175L7.14527 18.6085C7.0831 18.6036 7.03225 18.5928 7.03225 18.5845C7.03225 18.5762 6.9796 18.5631 6.91525 18.5554C6.8509 18.5478 6.79825 18.5336 6.79825 18.5239V18.5064H6.68938H6.58051L6.52525 18.4769L6.46998 18.4475H6.3557H6.24142L6.23697 18.4274L6.23254 18.4073L6.07989 18.395C5.99594 18.3882 5.92725 18.3763 5.92725 18.3685C5.92725 18.3607 5.86177 18.3503 5.78173 18.3454L5.63619 18.3363L5.63113 18.3134L5.62608 18.2905H5.43325H5.24042L5.235 18.2659L5.22959 18.2414L4.96092 18.2345C4.81315 18.2307 4.69225 18.2207 4.69225 18.2123C4.69225 18.2039 4.4992 18.1905 4.26325 18.1825L3.83425 18.168V18.1508V18.1335H3.67977H3.52528L3.52052 18.0991C3.51789 18.0802 3.51726 14.9625 3.51909 11.1708L3.52243 4.27674H3.54184C3.55251 4.27674 3.56125 4.26818 3.56125 4.25772V4.2387L3.7205 4.23252C3.80809 4.22913 3.92174 4.22444 3.97308 4.2221L4.06639 4.21786L4.08683 4.2487ZM20.432 4.25221C20.435 4.26571 20.4457 4.27674 20.4558 4.27674H20.4742L20.4758 6.50932C20.4771 8.28726 20.4761 18.0592 20.4746 18.145L20.4742 18.1663L19.8736 18.1796L19.273 18.1929L19.2659 18.21C19.262 18.2194 19.1568 18.2305 19.0322 18.2348L18.8057 18.2425L18.8004 18.2665L18.7951 18.2905H18.6022H18.4094L18.4042 18.3142L18.3989 18.3379L18.2276 18.3459C18.1333 18.3504 18.0562 18.3605 18.0562 18.3683C18.0562 18.3762 17.9817 18.388 17.8907 18.3945L17.7252 18.4063L17.7206 18.4269L17.7161 18.4475H17.5961H17.4762L17.451 18.4763L17.4257 18.5051L17.312 18.5058L17.1982 18.5064V18.5244C17.1982 18.5344 17.1397 18.5488 17.0682 18.5564C16.9967 18.5641 16.9382 18.5768 16.9382 18.5847C16.9382 18.5925 16.8872 18.6038 16.8249 18.6097L16.7116 18.6203L16.7068 18.6419L16.7021 18.6634H16.6067H16.5114L16.5071 18.6829C16.5047 18.6936 16.4574 18.7081 16.402 18.7152C16.3466 18.7223 16.3012 18.7344 16.3012 18.7421C16.3012 18.7499 16.2591 18.7608 16.2075 18.7664L16.1138 18.7765L16.1089 18.7985L16.1041 18.8204H16.0152H15.9264L15.9213 18.8434L15.9162 18.8664L15.8357 18.8752C15.7915 18.8801 15.7552 18.8909 15.7552 18.8994C15.7552 18.9078 15.7201 18.9208 15.6772 18.9284C15.6343 18.9359 15.5992 18.95 15.5992 18.9597C15.5992 18.9695 15.5653 18.9774 15.5237 18.9774H15.4482L15.423 19.0062L15.3977 19.0351L15.3306 19.0357L15.2634 19.0363L15.2584 19.0589L15.2534 19.0815L15.1793 19.0908C15.1386 19.0959 15.1052 19.1078 15.1052 19.1173C15.1052 19.1267 15.0787 19.1344 15.0463 19.1344H14.9874L14.9799 19.1639L14.9725 19.1933H14.9153C14.8839 19.1933 14.8582 19.201 14.8582 19.2104C14.8582 19.2325 14.7626 19.2558 14.7358 19.2403C14.7038 19.2217 14.7116 19.1933 14.7487 19.1933C14.7671 19.1933 14.7909 19.1801 14.8016 19.1639C14.8123 19.1477 14.8324 19.1344 14.8462 19.1344C14.86 19.1344 14.8712 19.1268 14.8712 19.1173C14.8712 19.1079 14.8946 19.0946 14.9232 19.0877C14.9518 19.0807 14.9752 19.0664 14.9752 19.0557C14.9752 19.045 14.993 19.0363 15.0146 19.0363H15.0541L15.0615 19.0069L15.069 18.9774H15.1066C15.1273 18.9774 15.1442 18.9697 15.1442 18.9603C15.1442 18.9509 15.1676 18.9375 15.1962 18.9306C15.2248 18.9237 15.2482 18.9094 15.2482 18.8987C15.2482 18.888 15.266 18.8793 15.2876 18.8793H15.3271L15.3345 18.8499L15.342 18.8204H15.3936H15.4451L15.4646 18.791C15.4753 18.7748 15.5012 18.7615 15.5222 18.7615C15.5431 18.7615 15.5602 18.7539 15.5602 18.7445C15.5602 18.7351 15.585 18.7224 15.6152 18.7163C15.6454 18.7102 15.6723 18.6958 15.6748 18.6843C15.6773 18.6728 15.6969 18.6634 15.7183 18.6634C15.7396 18.6634 15.7659 18.6501 15.7766 18.634C15.7873 18.6178 15.8162 18.6045 15.8407 18.6045C15.8652 18.6045 15.8852 18.5967 15.8852 18.5871C15.8852 18.5775 15.9116 18.5637 15.9437 18.5565C15.9759 18.5492 16.0022 18.5349 16.0022 18.5248C16.0022 18.5147 16.0286 18.5064 16.0607 18.5064H16.1192V18.4769V18.4475H16.1893H16.2595L16.2669 18.4181L16.2744 18.3886H16.3138C16.3355 18.3886 16.3532 18.3798 16.3532 18.369V18.3494H16.4108H16.4684L16.4879 18.3199L16.5074 18.2905H16.5657H16.6241L16.629 18.2684C16.6316 18.2562 16.6643 18.2418 16.7015 18.2364C16.7388 18.231 16.7692 18.22 16.7692 18.212C16.7692 18.204 16.8043 18.1914 16.8472 18.1841C16.8901 18.1768 16.9252 18.1624 16.9252 18.1521C16.9252 18.1419 16.9534 18.1335 16.9878 18.1335H17.0503L17.0755 18.1047L17.1007 18.0758L17.169 18.0752C17.2065 18.0749 17.2372 18.0666 17.2372 18.0569C17.2372 18.0471 17.2723 18.033 17.3152 18.0255C17.3581 18.018 17.3932 18.0039 17.3932 17.9942C17.3932 17.9844 17.4181 17.9764 17.4485 17.9763C17.4789 17.9763 17.5205 17.963 17.541 17.9469L17.5782 17.9176H17.6601H17.7421L17.7471 17.895L17.752 17.8724L17.8261 17.8631C17.8669 17.858 17.9002 17.8474 17.9002 17.8395C17.9002 17.8316 17.9456 17.8194 18.001 17.8123C18.0564 17.8053 18.1037 17.7907 18.1061 17.78L18.1104 17.7605H18.2187H18.3271L18.3325 17.7361L18.3379 17.7116L18.4506 17.7046C18.5125 17.7008 18.5632 17.6907 18.5632 17.6822C18.5632 17.6737 18.6334 17.6604 18.7192 17.6526C18.805 17.6448 18.8752 17.6306 18.8752 17.621V17.6035L19.028 17.6034L19.1807 17.6033L19.218 17.574L19.2552 17.5447H19.4552H19.6552V17.5274C19.6552 17.5179 19.6896 17.5064 19.7317 17.5018L19.8082 17.4934L19.8485 17.4325L19.8889 17.3715L19.8894 10.8073C19.8897 7.19694 19.8941 4.23653 19.8993 4.2286C19.9045 4.22065 20.0253 4.21719 20.1677 4.22092L20.4266 4.22767L20.432 4.25221ZM5.85714 7.97806C5.8528 7.99513 5.84925 8.61338 5.84925 9.35195V10.6948H5.83625H5.82325V10.7733V10.8518H5.83625H5.84925V12.6853V14.5188L5.833 14.5303L5.81675 14.5417L5.833 14.5532C5.84194 14.5595 5.84925 14.5771 5.84925 14.5924V14.6202H7.66924H9.48924V13.9333V13.2463H9.47082C9.46069 13.2463 9.45046 13.2384 9.44807 13.2288L9.44374 13.2112L8.27701 13.2042L7.11027 13.1973L7.11026 10.6059L7.11025 8.0146L7.0841 7.9808L7.05795 7.94701H6.46149H5.86503L5.85714 7.97806ZM10.058 7.98789L10.0352 8.02552V9.65456V11.2836H10.0482H10.0612V12.9519V14.6202H11.999H13.9368L13.9328 13.9522L13.9287 13.2841L13.9092 13.2655L13.8897 13.2469L12.6075 13.2466L11.3253 13.2463L11.3195 13.212C11.3163 13.1931 11.3156 12.895 11.3179 12.5496C11.3201 12.2041 11.3221 11.9105 11.3221 11.897L11.3222 11.8724H12.4467H13.5712V11.2345V10.5967H13.5528C13.5427 10.5967 13.532 10.5856 13.529 10.5721L13.5236 10.5476H12.4289H11.3343L11.322 10.5182L11.3096 10.4887L11.3094 9.90481L11.3092 9.3209H12.5582H13.8071L13.8242 9.29511L13.8413 9.2693L13.8509 8.71763C13.8562 8.41419 13.8564 8.11668 13.8514 8.05647L13.8424 7.94701L11.9616 7.94864L10.0807 7.95028L10.058 7.98789ZM14.3211 8.05986C14.3168 8.12194 14.3169 8.43107 14.3214 8.74681L14.3294 9.3209H15.0488H15.7682V9.34053C15.7682 9.35132 15.7824 9.36016 15.7997 9.36016C15.817 9.36016 15.8404 9.36552 15.8517 9.37207L15.8722 9.38398V10.7558V12.1276H15.8592H15.8462V12.3238V12.5201H15.8592H15.8722V12.6968V12.8734H15.8592H15.8462V13.7468V14.6202H16.4832H17.1202V12.0044V9.3885L17.1464 9.3547L17.1725 9.3209H17.9069H18.6412V8.63396V7.94701H16.4851H14.3289L14.3211 8.05986ZM9.37224 19.2718C9.37224 19.2826 9.36347 19.2915 9.35274 19.2915C9.34202 19.2915 9.33324 19.2826 9.33324 19.2718C9.33324 19.261 9.34202 19.2522 9.35274 19.2522C9.36347 19.2522 9.37224 19.261 9.37224 19.2718ZM14.7022 19.2718C14.7022 19.2826 14.6876 19.2915 14.6697 19.2915C14.6519 19.2915 14.6372 19.2826 14.6372 19.2718C14.6372 19.261 14.6519 19.2522 14.6697 19.2522C14.6876 19.2522 14.7022 19.261 14.7022 19.2718ZM13.8832 20.1158C13.8832 20.1266 13.8774 20.1354 13.8702 20.1354C13.8631 20.1354 13.8572 20.1266 13.8572 20.1158C13.8572 20.105 13.8631 20.0962 13.8702 20.0962C13.8774 20.0962 13.8832 20.105 13.8832 20.1158Z" fill="#5261BC"/>
</svg>
