<svg width="1538" height="1019" viewBox="0 0 1538 1019" fill="none" xmlns="http://www.w3.org/2000/svg">
<path fill-rule="evenodd" clip-rule="evenodd" d="M1315.83 0.869995L1315.5 1.741L1280.54 2.24701L1245.58 2.75299L1245.21 3.87601L1244.83 5L1230.17 5.00601L1215.5 5.01199L1212.64 6.50601L1209.77 8H1198.89H1188V8.90399C1188 9.40099 1183.28 10.13 1177.5 10.523C1171.72 10.917 1167 11.589 1167 12.017C1167 12.445 1163.1 12.955 1158.33 13.151L1149.66 13.507L1149.25 14.753L1148.83 16H1141H1133.17L1132.83 16.973C1132.65 17.507 1129.24 18.247 1125.25 18.616C1121.26 18.985 1118 19.612 1118 20.009C1118 20.406 1114.75 20.963 1110.79 21.247L1103.58 21.763L1103.21 22.882L1102.83 24H1096H1089.17L1088.78 25.172L1088.39 26.345L1082.19 26.792C1078.79 27.039 1076 27.578 1076 27.991C1076 28.404 1072.85 29.052 1069 29.431C1065.15 29.811 1062 30.544 1062 31.061V32H1056.11H1050.21L1049.64 33.5L1049.06 35H1044.53C1042.04 35 1040 35.418 1040 35.928C1040 36.438 1037.53 37.165 1034.5 37.543C1031.47 37.921 1029 38.629 1029 39.115C1029 39.602 1026.96 40 1024.47 40H1019.94L1019.36 41.5L1018.79 43H1014.48H1010.17L1009.79 44.127C1009.58 44.747 1007.07 45.479 1004.21 45.754C1001.34 46.029 999 46.62 999 47.066C999 47.512 996.975 48.181 994.5 48.552C992.025 48.923 990 49.626 990 50.114C990 50.601 988.462 51 986.583 51C984.704 51 983.007 51.479 982.812 52.065C982.617 52.65 980.554 53.384 978.228 53.696C975.903 54.008 974 54.603 974 55.018C974 55.433 971.975 56.077 969.5 56.448C967.025 56.819 965 57.487 965 57.933C965 58.379 963.2 59.032 961 59.384C958.8 59.736 957 60.468 957 61.012C957 61.555 955.425 62 953.5 62C951.575 62 950 62.445 950 62.988C950 63.532 948.2 64.264 946 64.616C943.8 64.968 942 65.648 942 66.128C942 66.608 940.636 67 938.969 67H935.937L935.362 68.5L934.786 70H931H927.214L926.638 71.5L926.063 73H923.531C922.139 73 921 73.4 921 73.889C921 74.377 919.425 75.073 917.5 75.434C915.575 75.795 914 76.52 914 77.045C914 77.57 912.682 78 911.071 78C909.461 78 907.468 78.675 906.643 79.5C905.818 80.325 903.986 81 902.571 81C901.157 81 900 81.414 900 81.921C900 82.427 898.65 83.138 897 83.5C895.35 83.862 894 84.573 894 85.079C894 85.586 893.132 86 892.071 86C891.011 86 889.468 86.675 888.643 87.5C887.818 88.325 886.034 89 884.678 89H882.214L881.638 90.5L881.063 92H878.531C877.139 92 876 92.414 876 92.921C876 93.427 874.65 94.138 873 94.5C871.35 94.862 870 95.573 870 96.079C870 96.586 869.132 97 868.071 97C867.011 97 865.468 97.675 864.643 98.5C863.818 99.325 862.436 100 861.571 100C860.707 100 860 100.441 860 100.981C860 101.52 858.875 102.244 857.5 102.589C856.125 102.934 855 103.618 855 104.108C855 104.599 854.132 105 853.071 105C852.011 105 850.468 105.675 849.643 106.5C848.818 107.325 847.034 108 845.678 108H843.214L842.638 109.5C842.322 110.325 841.374 111 840.531 111C839.689 111 839 111.45 839 112C839 112.55 837.875 113 836.5 113H834V114.5V116H831.107H828.214L827.638 117.5L827.063 119H824.531C823.139 119 822 119.45 822 120C822 120.55 821.311 121 820.469 121C819.626 121 818.678 121.675 818.362 122.5L817.786 124H815.393H813V125.5V127H811C809.9 127 809 127.401 809 127.892C809 128.382 807.875 129.066 806.5 129.411C805.125 129.756 804 130.48 804 131.019C804 131.559 803.311 132 802.469 132C801.626 132 800.678 132.675 800.362 133.5C800.045 134.325 798.913 135 797.845 135C796.778 135 794.913 136.055 793.702 137.344C792.491 138.634 790.263 139.992 788.75 140.364C787.237 140.735 786 141.48 786 142.019C786 142.559 785.373 143 784.607 143C783.841 143 782.955 143.675 782.638 144.5C782.322 145.325 781.374 146 780.531 146C779.689 146 779 146.441 779 146.981C779 147.52 777.875 148.244 776.5 148.589C775.125 148.934 774 149.618 774 150.108C774 150.599 773.347 151 772.55 151C771.752 151 770.707 151.7 770.229 152.556L769.358 154.112L765.998 152.306C764.149 151.313 761.707 149.566 760.569 148.425C759.431 147.285 757.712 146.061 756.75 145.707C755.788 145.353 755 144.599 755 144.031C755 143.464 753.923 143 752.607 143H750.214L749.638 141.5C749.322 140.675 748.374 140 747.531 140C746.689 140 746 139.559 746 139.019C746 138.48 744.875 137.756 743.5 137.411C742.125 137.066 741 136.382 741 135.892C741 135.401 740.373 135 739.607 135C738.841 135 737.955 134.325 737.638 133.5C737.322 132.675 736.374 132 735.531 132C734.689 132 734 131.55 734 131C734 130.45 733.357 130 732.571 130C731.786 130 730.544 129.401 729.812 128.669C729.079 127.936 727.247 127.028 725.74 126.65C724.233 126.271 723 125.52 723 124.981C723 124.441 722.325 124 721.5 124C720.675 124 720 123.586 720 123.079C720 122.573 718.65 121.862 717 121.5C715.35 121.138 714 120.463 714 120C714 119.537 712.65 118.862 711 118.5C709.35 118.138 708 117.427 708 116.921C708 116.414 707.373 116 706.607 116C705.841 116 704.955 115.325 704.638 114.5L704.063 113H701.531C700.139 113 699 112.586 699 112.079C699 111.573 697.65 110.862 696 110.5C694.35 110.138 693 109.427 693 108.921C693 108.414 692.293 108 691.429 108C690.564 108 689.182 107.325 688.357 106.5C687.532 105.675 685.989 105 684.929 105C683.868 105 683 104.586 683 104.079C683 103.573 681.65 102.862 680 102.5C678.35 102.138 677 101.427 677 100.921C677 100.414 675.923 100 674.607 100H672.214L671.638 98.5L671.063 97H668.531C667.139 97 666 96.586 666 96.079C666 95.573 664.65 94.862 663 94.5C661.35 94.138 660 93.427 660 92.921C660 92.414 659.132 92 658.071 92C657.011 92 655.468 91.325 654.643 90.5C653.818 89.675 652.034 89 650.678 89H648.214L647.638 87.5L647.063 86H644.531C643.139 86 642 85.586 642 85.079C642 84.573 640.65 83.862 639 83.5C637.35 83.138 636 82.427 636 81.921C636 81.414 634.636 81 632.969 81H629.937L629.362 79.5L628.786 78H625.893C624.302 78 623 77.586 623 77.079C623 76.573 621.65 75.862 620 75.5C618.35 75.138 617 74.427 617 73.921C617 73.414 615.2 73 613 73H609V71.5V70H605.929C604.239 70 602.182 69.325 601.357 68.5C600.532 67.675 598.539 67 596.929 67C595.318 67 594 66.609 594 66.132C594 65.654 592.097 65.008 589.772 64.696C587.446 64.384 585.383 63.65 585.188 63.065C584.993 62.479 583.558 62 582 62C580.442 62 579.007 61.521 578.812 60.935C578.617 60.35 576.554 59.616 574.228 59.304C571.903 58.992 570 58.373 570 57.93C570 57.486 567.975 56.819 565.5 56.448C563.025 56.077 561 55.374 561 54.886C561 54.399 559.763 53.986 558.25 53.968C556.737 53.951 554.626 53.276 553.559 52.468C552.491 51.661 550.166 51 548.392 51C546.618 51 544.998 50.493 544.791 49.873C544.584 49.253 542.072 48.521 539.208 48.246C536.343 47.971 534 47.412 534 47.004C534 46.597 532.097 46.008 529.772 45.696C527.446 45.384 525.383 44.65 525.188 44.065C524.993 43.479 523.489 43 521.845 43C520.202 43 518.182 42.325 517.357 41.5L515.857 40H511.429C508.993 40 507 39.609 507 39.13C507 38.652 504.877 38.021 502.283 37.728C499.688 37.436 497.401 36.702 497.199 36.098L496.833 35H492.608H488.382L486.441 33.532L484.5 32.064L479.25 32.032C476.362 32.014 474 31.594 474 31.098C474 30.602 471.3 29.883 468 29.5C464.7 29.117 462 28.398 462 27.902C462 27.406 459.782 27 457.071 27H452.143L450.643 25.5L449.143 24H442.155H435.167L434.817 22.952C434.625 22.375 431.888 21.637 428.734 21.312C425.58 20.987 423 20.384 423 19.973C423 19.562 419.769 19.043 415.819 18.82L408.638 18.414L408.236 17.207L407.833 16H399H390.167L389.751 14.753L389.336 13.507L380.668 13.151C375.901 12.955 372 12.455 372 12.04C372 11.625 367.387 10.971 361.75 10.586C356.113 10.201 351.35 9.46099 351.167 8.94299L350.833 8H339.542H328.251L324 6.5L319.749 5H301.958H284.167L283.75 3.75L283.334 2.5H224.502H165.669L165.245 3.76801C165.012 4.46501 164.187 5.67101 163.411 6.44601L162 7.85699V48.357V88.857L160.429 90.429L158.857 92H130.429H102V93C102 93.55 100.65 94 99 94H96V95.5C96 96.325 95.374 97 94.608 97C93.843 97 92.934 98.125 92.589 99.5C92.244 100.875 91.52 102 90.981 102H90V470V838H91.5C92.325 838 93 838.675 93 839.5C93 840.325 93.482 841 94.071 841C94.661 841 95.818 841.675 96.643 842.5L98.143 844H101.571C103.457 844 105 844.407 105 844.904V845.808L140.667 846.154L176.334 846.5L176.75 847.75L177.167 849H199H220.833L221.167 849.971L221.5 850.943L238.25 851.626C247.463 852.002 255 852.634 255 853.029C255 853.425 261.61 853.947 269.689 854.19L284.377 854.632L284.772 855.816L285.167 857H297H308.833L309.203 858.11L309.573 859.22L321.037 859.751C327.342 860.043 332.734 860.641 333.021 861.079C333.308 861.518 338.145 862.194 343.771 862.581C349.397 862.969 354 863.625 354 864.04C354 864.455 357.901 864.955 362.668 865.151L371.336 865.507L371.751 866.753L372.167 868H381H389.833L390.177 869.032L390.521 870.064L399.261 870.68C404.067 871.02 408 871.634 408 872.046C408 872.458 411.901 872.955 416.668 873.151L425.336 873.507L425.751 874.753L426.167 876H433.5H440.833L441.236 877.207L441.638 878.414L448.819 878.82C452.769 879.043 456 879.569 456 879.989C456 880.409 458.565 880.965 461.7 881.225L467.399 881.698L467.783 882.849L468.167 884H475H481.833L482.224 885.172L482.615 886.345L488.807 886.792C492.213 887.039 495 887.592 495 888.022C495 888.452 497.7 889.117 501 889.5C504.3 889.883 507 890.546 507 890.974C507 891.402 509.565 891.965 512.7 892.225L518.399 892.698L518.783 893.849L519.167 895H525H530.833L531.209 896.127C531.416 896.747 533.928 897.479 536.792 897.754C539.657 898.029 542 898.589 542 898.997C542 899.406 544.123 899.979 546.717 900.272C549.312 900.564 551.599 901.298 551.801 901.902L552.167 903H557.655H563.143L564.643 904.5L566.143 906H569.571C571.457 906 573 906.391 573 906.868C573 907.346 574.903 907.992 577.228 908.304C579.554 908.616 581.617 909.35 581.812 909.935C582.007 910.521 583.961 911 586.155 911H590.143L591.643 912.5L593.143 914H596.571C598.457 914 600 914.399 600 914.886C600 915.374 602.025 916.077 604.5 916.448C606.975 916.819 609 917.545 609 918.061C609 918.578 610.088 919 611.418 919C614.48 919 617 919.951 617 921.107C617 921.598 614.563 922 611.583 922H606.167L605.764 920.793L605.362 919.586L598.181 919.18C594.231 918.957 591 918.419 591 917.985C591 917.551 588.3 916.883 585 916.5C581.7 916.117 579 915.398 579 914.902C579 914.406 576.413 913.986 573.25 913.968L567.5 913.936L565.559 912.468L563.618 911H556.392H549.167L548.833 910.027C548.65 909.493 545.238 908.753 541.25 908.384C537.263 908.015 534 907.387 534 906.988C534 906.589 530.533 906.041 526.296 905.769L518.591 905.274L518.212 904.137L517.833 903H508H498.167L497.806 901.918L497.445 900.836L487.223 900.272C481.6 899.963 477 899.393 477 899.007C477 898.621 471.713 898.004 465.25 897.635L453.5 896.966L453.167 895.983L452.833 895H441H429.167L428.788 893.865L428.41 892.731L416.205 892.228C409.492 891.952 404 891.384 404 890.967C404 890.549 397.475 889.882 389.5 889.483C381.525 889.084 375 888.419 375 888.005C375 887.591 368.587 887.032 360.75 886.764C352.913 886.496 345.233 885.764 343.685 885.138L340.87 884H322.018H303.167L302.801 882.903L302.435 881.805L275.968 881.266C261.41 880.969 249.275 880.401 249 880.005C248.725 879.608 237.94 879.041 225.034 878.744L201.568 878.204L201.201 877.102L200.833 876H148.417H96V875C96 874.45 95.325 874 94.5 874C93.675 874 93 874.45 93 875V876H78H63V874.5C63 873.675 62.325 873 61.5 873H60V867.583V862.167L61.086 861.805L62.171 861.443L62.049 525.471L61.927 189.5L60.964 189.167C60.434 188.983 60 187.766 60 186.462V184.091L56.534 183.44C54.628 183.083 44.036 182.95 32.997 183.145L12.927 183.5L12.203 184.671C11.805 185.315 10.263 186.147 8.776 186.52L6.072 187.199L5.468 189.099C5.137 190.145 4.446 191 3.933 191C3.42 191 3 191.689 3 192.531C3 193.374 2.325 194.322 1.5 194.638L0 195.214V557V918.786L1.5 919.362C2.325 919.678 3 920.851 3 921.969V924H4.429C5.214 924 6.644 924.787 7.606 925.75L9.355 927.5L22.677 927.848L36 928.196V929.098V930L99.75 930.084L163.5 930.169L169.5 931.107C172.8 931.623 190.688 932.315 209.25 932.645C227.813 932.975 243 933.577 243 933.983C243 934.389 253.687 935.051 266.749 935.455C279.812 935.859 290.724 936.533 290.999 936.953C291.275 937.373 301.85 937.963 314.5 938.265L337.5 938.814L340.315 939.907L343.13 941H358.482H373.833L374.167 941.944L374.5 942.888L389.75 943.592C398.137 943.98 405 944.632 405 945.041C405 945.451 412.051 945.949 420.668 946.147L436.336 946.508L436.751 947.754L437.167 949H451H464.833L465.219 950.156L465.604 951.312L478.802 951.789C486.061 952.051 492 952.587 492 952.98C492 953.373 497.061 953.984 503.247 954.338L514.494 954.981L514.83 955.991L515.167 957H523.958H532.749L537 958.5L541.251 960H549.626H558V960.92C558 961.426 562.5 962.159 568 962.549C573.5 962.939 578 963.59 578 963.995C578 964.401 582.591 964.954 588.203 965.224L598.405 965.715L598.786 966.858L599.167 968H607.083H615V968.925C615 969.434 619.05 970.167 624 970.554C628.95 970.941 633 971.583 633 971.98C633 972.378 636.933 972.98 641.739 973.32L650.479 973.936L650.823 974.968L651.167 976H658.083H665V977.031C665 977.599 665.788 978.353 666.75 978.707C667.712 979.061 669.491 980.397 670.702 981.675C671.913 982.954 673.186 984 673.529 984C673.873 984 675.504 985.35 677.154 987C678.804 988.65 680.591 990 681.125 990C681.659 990 683.138 991.125 684.412 992.5C685.687 993.875 687.465 995 688.365 995C689.264 995 690 995.675 690 996.5C690 997.325 690.675 998 691.5 998C692.325 998 693 998.45 693 999C693 999.55 694.139 1000 695.531 1000H698.063L698.638 1001.5C698.955 1002.32 700.243 1003 701.5 1003C702.757 1003 704.045 1003.68 704.362 1004.5L704.937 1006H707.469C708.861 1006 710 1006.41 710 1006.92C710 1007.43 711.35 1008.14 713 1008.5C714.65 1008.86 716 1009.57 716 1010.08C716 1010.59 717.364 1011 719.031 1011H722.063L722.638 1012.5L723.214 1014H727.524C729.894 1014 731.983 1014.44 732.167 1014.97C732.35 1015.51 735.762 1016.25 739.75 1016.62C743.737 1016.98 747 1017.67 747 1018.14V1019H769H791V1018.15C791 1017.68 794.257 1017.02 798.237 1016.68C802.218 1016.35 805.63 1015.61 805.821 1015.04C806.011 1014.47 807.618 1014 809.392 1014C811.166 1014 813.491 1013.34 814.559 1012.53C815.626 1011.72 817.737 1011.05 819.25 1011.03C820.763 1011.01 822 1010.59 822 1010.08C822 1009.57 823.35 1008.86 825 1008.5C826.65 1008.14 828 1007.43 828 1006.92C828 1006.41 829.35 1006 831 1006H834V1004.5V1003H837C838.65 1003 840 1002.56 840 1002.02C840 1001.48 841.125 1000.76 842.5 1000.41C843.875 1000.07 845 999.382 845 998.892C845 998.401 845.689 998 846.531 998C847.374 998 848.322 997.325 848.638 996.5C848.955 995.675 849.841 995 850.607 995C851.373 995 852 994.325 852 993.5C852 992.675 852.675 992 853.5 992C854.325 992 855 991.55 855 991C855 990.45 855.675 990 856.5 990C857.325 990 858 989.325 858 988.5C858 987.675 858.675 987 859.5 987C860.325 987 861 986.325 861 985.5C861 984.675 861.675 984 862.5 984C863.325 984 864 983.58 864 983.067C864 982.554 864.97 981.827 866.156 981.45C867.342 981.074 869.306 979.694 870.521 978.383L872.729 976H879.781H886.833L887.223 974.831L887.613 973.662L896.306 973.205C901.088 972.955 905 972.422 905 972.021C905 971.621 908.487 970.999 912.75 970.639C917.013 970.279 920.65 969.538 920.833 968.992L921.167 968H931H940.833L941.249 966.753L941.664 965.507L950.332 965.151C955.099 964.955 959 964.434 959 963.994C959 963.553 963.725 962.87 969.5 962.477C975.275 962.083 980 961.365 980 960.881V960H989.309H998.618L1000.56 958.532L1002.5 957.064L1012.67 957.032L1022.83 957L1023.17 956.017L1023.5 955.034L1035.25 954.365C1041.71 953.996 1047 953.372 1047 952.976C1047 952.581 1052.04 952.049 1058.19 951.796L1069.39 951.334L1069.78 950.167L1070.17 949H1085H1099.83L1100.22 947.834L1100.61 946.668L1114.31 946.204C1121.84 945.948 1128 945.419 1128 945.027C1128 944.635 1135.76 944.022 1145.25 943.664L1162.5 943.012L1162.83 942.006L1163.17 941H1179.38H1195.6L1196.71 939.894L1197.81 938.789L1219.16 938.252C1230.9 937.958 1240.73 937.37 1241 936.946C1241.28 936.523 1252.42 935.848 1265.75 935.446C1279.09 935.043 1290 934.386 1290 933.984C1290 933.582 1304.29 933.034 1321.75 932.766L1353.5 932.278L1356.31 931.139L1359.13 930H1414.56H1470V929.066V928.132L1500.32 927.816L1530.64 927.5L1533.32 924.604C1534.79 923.011 1536 921.099 1536 920.354C1536 919.609 1536.45 919 1537 919H1538V555.5V192H1536.5C1535.68 192 1535 191.325 1535 190.5C1535 189.675 1534.32 189 1533.5 189C1532.68 189 1532 188.325 1532 187.5C1532 186.675 1531.36 186 1530.58 186C1529.8 186 1528.98 185.438 1528.75 184.75L1528.33 183.5L1506.61 183.15C1494.66 182.957 1483.34 183.09 1481.44 183.445L1478 184.091V196.045V208H1477H1476V540.531V873.063L1474.25 873.708C1473.29 874.064 1472.16 874.837 1471.75 875.427L1471 876.5L1470.18 875.234L1469.36 873.967L1437.94 873.954L1406.52 873.941L1406.18 874.97L1405.83 876H1368.5H1331.17L1330.79 877.138L1330.41 878.275L1304.2 878.779C1289.79 879.056 1278 879.603 1278 879.995C1278 880.387 1267.1 880.946 1253.79 881.239L1229.58 881.771L1229.2 882.885L1228.83 884H1212.98H1197.13L1194.31 885.138C1192.77 885.764 1185.09 886.496 1177.25 886.764C1169.41 887.032 1163 887.594 1163 888.013C1163 888.431 1156.25 889.1 1148 889.5L1133 890.226V891.113V892H1122.16H1111.32L1106.41 893.489L1101.5 894.978L1090.83 894.989L1080.17 895L1079.82 896.043L1079.47 897.085L1068.74 897.693C1062.83 898.028 1058 898.618 1058 899.005C1058 899.392 1053.4 899.963 1047.78 900.272L1037.56 900.836L1037.19 901.918L1036.83 903H1027H1017.17L1016.79 904.137L1016.41 905.274L1008.7 905.769C1004.47 906.041 1001 906.601 1001 907.013C1001 907.426 997.175 908.082 992.5 908.471C987.825 908.861 984 909.589 984 910.09C984 910.59 981.107 911 977.571 911H971.143L969.643 912.5L968.143 914H962.071C958.732 914 956 914.406 956 914.902C956 915.398 953.3 916.117 950 916.5C946.7 916.883 944 917.602 944 918.098C944 918.594 941.332 919 938.071 919H932.143L930.643 920.5L929.143 922H924.655H920.167L919.659 923.25L919.152 924.5L918.092 923C916.479 920.716 917.328 919.532 920.827 919.187C922.572 919.014 924 918.504 924 918.052C924 917.6 926.475 916.921 929.5 916.543C932.525 916.165 935 915.438 935 914.928C935 914.418 936.382 914 938.071 914C939.761 914 941.818 913.325 942.643 912.5L944.143 911H948.571C951.007 911 953 910.578 953 910.061C953 909.545 955.025 908.819 957.5 908.448C959.975 908.077 962 907.433 962 907.017C962 906.6 964.123 906.021 966.717 905.728C969.312 905.436 971.599 904.702 971.801 904.098L972.167 903H978H983.833L984.209 901.873C984.416 901.253 986.928 900.521 989.792 900.246C992.657 899.971 995 899.409 995 898.997C995 898.585 997.565 898.035 1000.7 897.775L1006.4 897.302L1006.78 896.151L1007.17 895H1012H1016.83L1017.22 893.849L1017.6 892.698L1023.3 892.225C1026.44 891.965 1029 891.38 1029 890.926C1029 890.471 1031.7 889.794 1035 889.42C1038.3 889.047 1041 888.35 1041 887.871C1041 887.392 1042.81 887 1045.03 887C1047.25 887 1050.68 886.325 1052.65 885.5C1054.63 884.675 1058.18 884 1060.54 884C1062.9 884 1064.98 883.562 1065.17 883.027C1065.35 882.493 1068.76 881.753 1072.75 881.384C1076.74 881.015 1080 880.38 1080 879.973C1080 879.566 1083.01 879.041 1086.69 878.807L1093.37 878.381L1093.77 877.191L1094.17 876H1101.5H1108.83L1109.24 874.778L1109.65 873.557L1117.32 873.169C1121.55 872.956 1125 872.447 1125 872.039C1125 871.631 1128.71 871.01 1133.25 870.661C1137.78 870.311 1141.64 869.569 1141.83 869.012L1142.17 868L1150.83 867.968L1159.5 867.936L1161.44 866.468L1163.38 865H1172.19H1181V864.096C1181 863.599 1185.72 862.87 1191.5 862.477C1197.28 862.083 1202 861.407 1202 860.974C1202 860.541 1206.57 860.033 1212.17 859.844L1222.33 859.5L1222.75 858.25L1223.17 857H1235.5H1247.83L1248.2 855.89L1248.57 854.78L1259.79 854.248C1265.95 853.956 1271 853.401 1271 853.015C1271 852.629 1278.31 852.012 1287.25 851.644L1303.5 850.975L1303.83 849.988L1304.17 849H1328H1351.83L1352.25 847.763L1352.66 846.525L1394.83 846.15C1418.02 845.943 1437 845.424 1437 844.995C1437 844.567 1438.12 843.934 1439.5 843.589C1440.88 843.244 1442 842.52 1442 841.981C1442 841.441 1442.62 841 1443.38 841C1445.38 841 1445.97 837.768 1445.99 826.75L1446 817H1447H1448V460V103H1447.11C1446.62 103 1445.93 101.868 1445.59 100.485C1444.83 97.48 1442.03 94 1440.36 94C1439.7 94 1439.02 93.562 1438.83 93.028L1438.5 92.055L1410.75 91.369C1395.49 90.991 1383 90.304 1383 89.841C1383 89.378 1381.42 89 1379.5 89H1376V47.952V6.905L1373.35 4.452L1370.71 2H1358.35H1346V1V0H1331.08H1316.17L1315.83 0.869995ZM270.217 25.151L270.601 26.302L290.8 26.788C301.91 27.055 311 27.616 311 28.035C311 28.453 317.075 29.12 324.5 29.518C331.925 29.916 338 30.637 338 31.121V32H346.874H355.749L360 33.5L364.251 35H372.042H379.833L380.167 35.994C380.35 36.54 384.663 37.283 389.75 37.644C394.837 38.004 399 38.631 399 39.037C399 39.442 402.231 39.957 406.181 40.18L413.362 40.586L413.764 41.793L414.167 43H421.5H428.833L429.23 44.191L429.627 45.381L436.314 45.807C439.991 46.041 443 46.578 443 47C443 47.422 445.925 48.08 449.5 48.463C453.075 48.846 456 49.573 456 50.08C456 50.586 457.939 51 460.309 51H464.618L466.559 52.468L468.5 53.936L473.75 53.968L479 54V54.966C479 55.497 481.25 56.23 484 56.594C486.75 56.959 489 57.65 489 58.129C489 58.608 490.832 59 493.071 59H497.143L498.643 60.5L500.143 62H504.988H509.833L510.209 63.127C510.416 63.747 512.928 64.479 515.792 64.754C518.657 65.029 521 65.588 521 65.996C521 66.403 522.903 66.992 525.228 67.304C527.554 67.616 529.617 68.35 529.812 68.935L530.167 70H534.476H538.786L539.362 71.5L539.937 73H543.969C546.186 73 548 73.4 548 73.889C548 74.377 549.575 75.073 551.5 75.434C553.425 75.795 555 76.52 555 77.045C555 77.57 557.025 78 559.5 78H564V79.5V81H567C568.65 81 570 81.399 570 81.886C570 82.374 572.025 83.077 574.5 83.448C576.975 83.819 579 84.545 579 85.061C579 85.578 580.318 86 581.929 86C583.539 86 585.532 86.675 586.357 87.5C587.182 88.325 589.046 89 590.5 89C591.954 89 593.818 89.675 594.643 90.5C595.468 91.325 597.011 92 598.071 92C599.132 92 600 92.392 600 92.872C600 93.352 601.8 94.032 604 94.384C606.2 94.736 608 95.468 608 96.012C608 96.555 609.237 97.014 610.75 97.032C612.263 97.049 614.374 97.724 615.441 98.532C616.509 99.339 618.196 100 619.191 100C620.186 100 621 100.414 621 100.921C621 101.427 622.35 102.138 624 102.5C625.65 102.862 627 103.573 627 104.079C627 104.586 628.157 105 629.571 105C630.986 105 632.818 105.675 633.643 106.5C634.468 107.325 636.413 108 637.964 108H640.786L641.362 109.5L641.937 111H644.469C645.861 111 647 111.45 647 112C647 112.55 647.9 113 649 113H651V114.5V116H654.893H658.786L659.362 117.5C659.678 118.325 660.626 119 661.469 119C662.311 119 663 119.414 663 119.921C663 120.427 664.35 121.138 666 121.5C667.65 121.862 669 122.573 669 123.079C669 123.586 670.077 124 671.393 124H673.786L674.362 125.5L674.937 127H677.362H679.786L680.362 128.5C680.678 129.325 681.626 130 682.469 130C683.311 130 684 130.45 684 131C684 131.55 685.139 132 686.531 132H689.063L689.638 133.5C689.955 134.325 691.243 135 692.5 135C693.757 135 695.045 135.675 695.362 136.5L695.937 138H698.362H700.786L701.362 139.5C701.678 140.325 702.626 141 703.469 141C704.311 141 705 141.45 705 142C705 142.55 706.077 143 707.393 143H709.786L710.362 144.5C710.678 145.325 711.626 146 712.469 146C713.311 146 714 146.414 714 146.921C714 147.427 715.35 148.138 717 148.5C718.65 148.862 720 149.524 720 149.971C720 150.418 721.125 151.066 722.5 151.411C723.875 151.756 725 152.48 725 153.019C725 153.559 725.736 154 726.635 154C727.535 154 729.313 155.125 730.588 156.5C731.862 157.875 733.84 159 734.984 159C736.127 159 737.322 159.675 737.638 160.5C737.955 161.325 738.841 162 739.607 162C740.373 162 741 162.441 741 162.981C741 163.52 742.237 164.265 743.75 164.636C745.263 165.008 747.491 166.366 748.702 167.656C749.913 168.945 751.146 170 751.441 170C751.736 170 752.882 170.775 753.989 171.722L756 173.444V220.722V268H763.417H770.833L771.417 269.25L772 270.5L772.583 269.25C772.904 268.563 774.442 268 776.002 268C777.561 268 779.548 267.727 780.418 267.393L782 266.786L782.014 220.643C782.028 173.503 782.208 170 784.617 170C785.377 170 786 169.559 786 169.019C786 168.48 787.125 167.756 788.5 167.411C789.875 167.066 791 166.382 791 165.892C791 165.401 791.689 165 792.531 165C793.374 165 794.322 164.325 794.638 163.5L795.214 162H797.607H800V160.5V159H802C803.1 159 804 158.599 804 158.108C804 157.618 805.125 156.934 806.5 156.589C807.875 156.244 809 155.52 809 154.981C809 154.441 809.9 154 811 154H813V152.5V151H815.5C816.875 151 818 150.55 818 150C818 149.45 818.689 149 819.531 149C820.374 149 821.322 148.325 821.638 147.5L822.214 146H824.638H827.063L827.638 144.5C827.955 143.675 829.243 143 830.5 143C831.757 143 833.045 142.325 833.362 141.5C833.678 140.675 834.626 140 835.469 140C836.311 140 837 139.586 837 139.079C837 138.573 838.35 137.862 840 137.5C841.65 137.138 843 136.427 843 135.921C843 135.414 843.675 135 844.5 135C845.325 135 846 134.586 846 134.079C846 133.573 847.35 132.862 849 132.5C850.65 132.138 852 131.463 852 131C852 130.537 853.35 129.862 855 129.5C856.65 129.138 858 128.427 858 127.921C858 127.414 859.125 127 860.5 127H863V125.5C863 124.675 863.707 124 864.571 124C865.436 124 866.818 123.325 867.643 122.5C868.468 121.675 870.011 121 871.071 121C872.132 121 873 120.55 873 120C873 119.45 874.139 119 875.531 119H878.063L878.638 117.5C878.955 116.675 880.243 116 881.5 116C882.757 116 884.045 115.325 884.362 114.5L884.937 113H887.469C888.861 113 890 112.6 890 112.111C890 111.623 891.575 110.927 893.5 110.566C895.425 110.205 897 109.48 897 108.955C897 108.43 898.139 108 899.531 108H902.063L902.638 106.5L903.214 105H906.107C907.698 105 909 104.586 909 104.079C909 103.573 910.35 102.862 912 102.5C913.65 102.138 915 101.427 915 100.921C915 100.414 916.318 100 917.929 100C919.539 100 921.532 99.325 922.357 98.5C923.182 97.675 924.966 97 926.322 97H928.786L929.362 95.5L929.937 94H932.969C934.636 94 936 93.55 936 93C936 92.45 937.139 92 938.531 92H941.063L941.638 90.5L942.214 89H946H949.786L950.362 87.5L950.937 86H953.969C955.636 86 957 85.608 957 85.128C957 84.648 958.8 83.968 961 83.616C963.2 83.264 965 82.532 965 81.988C965 81.445 966.382 81 968.071 81C969.761 81 971.818 80.325 972.643 79.5C973.468 78.675 975.686 78 977.571 78C979.457 78 981 77.555 981 77.012C981 76.468 982.8 75.736 985 75.384C987.2 75.032 989 74.352 989 73.872C989 73.392 990.543 73 992.429 73C994.314 73 996.532 72.325 997.357 71.5L998.857 70H1002.84H1006.83L1007.2 68.902C1007.4 68.298 1009.69 67.564 1012.28 67.272C1014.88 66.979 1017 66.408 1017 66.002C1017 65.596 1018.9 65.008 1021.23 64.696C1023.55 64.384 1025.62 63.65 1025.81 63.065L1026.17 62H1031.48H1036.79L1037.36 60.5L1037.94 59H1042.47C1044.96 59 1047 58.602 1047 58.115C1047 57.629 1049.47 56.921 1052.5 56.543C1055.53 56.165 1058 55.438 1058 54.928C1058 54.418 1059.91 53.997 1062.25 53.994C1064.59 53.99 1067.79 53.315 1069.36 52.494L1072.23 51H1077.53H1082.83L1083.22 49.849L1083.6 48.698L1089.3 48.225C1092.44 47.965 1095 47.41 1095 46.993C1095 46.575 1098.01 46.041 1101.69 45.807L1108.37 45.381L1108.77 44.191L1109.17 43H1116.5H1123.83L1124.25 41.753L1124.66 40.507L1133.33 40.151C1138.1 39.955 1142 39.458 1142 39.046C1142 38.634 1145.93 38.02 1150.74 37.68L1159.48 37.064L1159.82 36.032L1160.17 35H1167.89H1175.62L1177.56 33.532L1179.5 32.064L1189.75 32.032L1200 32V31.088V30.175L1212 29.459C1218.6 29.065 1224 28.417 1224 28.018C1224 27.619 1231.75 27.049 1241.21 26.751L1258.43 26.209L1258.8 25.105L1259.17 24H1304.58H1350V25.417C1350 26.196 1350.56 27.096 1351.25 27.417L1352.5 28L1351.14 28.621L1349.77 29.242L1351.14 30.121L1352.5 31L1351 32.076L1349.5 33.152L1350.75 33.659C1352.23 34.259 1352.46 40 1351 40H1350V56.5V73H1351H1352V392V711H1351H1350V726V741H1351H1352V753V765H1351C1350.45 765 1350 765.675 1350 766.5V768H1346.5C1344.58 768 1343 768.398 1343 768.885V769.77L1325 770.5C1315.1 770.902 1307 771.566 1307 771.976C1307 772.386 1301.91 772.945 1295.7 773.22C1289.48 773.494 1283.43 774.232 1282.26 774.859C1281.09 775.487 1276.73 776 1272.57 776H1265V776.925C1265 777.434 1260.95 778.167 1256 778.554C1251.05 778.941 1247 779.583 1247 779.981C1247 780.378 1243.29 780.99 1238.75 781.339C1234.22 781.689 1230.36 782.431 1230.17 782.988L1229.83 784H1223.5H1217.17L1216.76 785.207L1216.36 786.414L1209.18 786.82C1205.23 787.043 1202 787.567 1202 787.984C1202 788.401 1198.85 789.052 1195 789.431C1191.15 789.811 1188 790.544 1188 791.061V792H1181.57H1175.14L1173.64 793.5L1172.14 795H1167.57C1165.06 795 1163 795.423 1163 795.939C1163 796.456 1159.85 797.189 1156 797.569C1152.15 797.948 1149 798.592 1149 798.999C1149 799.407 1146.88 799.979 1144.28 800.272C1141.69 800.564 1139.4 801.298 1139.2 801.902L1138.83 803H1133.42H1128V803.966C1128 804.497 1125.75 805.23 1123 805.594C1120.25 805.959 1118 806.598 1118 807.014C1118 807.429 1115.53 808.079 1112.5 808.457C1109.47 808.835 1107 809.562 1107 810.072C1107 810.582 1105.09 811.014 1102.75 811.032L1098.5 811.064L1096.56 812.532C1095.49 813.339 1093.13 814 1091.31 814C1089.49 814 1088 814.418 1088 814.928C1088 815.438 1085.53 816.165 1082.5 816.543C1079.47 816.921 1077 817.629 1077 818.115C1077 818.602 1075.76 819.014 1074.25 819.032C1072.74 819.049 1070.63 819.724 1069.56 820.532C1068.49 821.339 1066.17 822 1064.39 822C1062.62 822 1061.01 822.479 1060.81 823.065C1060.62 823.65 1058.55 824.384 1056.23 824.696C1053.9 825.008 1052 825.595 1052 826C1052 826.405 1050.1 826.992 1047.77 827.304C1045.45 827.616 1043.38 828.35 1043.19 828.935C1042.99 829.521 1041.12 830 1039.02 830H1035.21L1034.64 831.5L1034.06 833H1031.03C1029.36 833 1028 833.45 1028 834C1028 834.55 1026.68 835 1025.07 835C1023.46 835 1021.47 835.675 1020.64 836.5C1019.82 837.325 1017.95 838 1016.5 838C1015.05 838 1013.18 838.675 1012.36 839.5C1011.53 840.325 1009.31 841 1007.43 841C1005.54 841 1004 841.445 1004 841.988C1004 842.532 1002.2 843.264 1000 843.616C997.8 843.968 996 844.648 996 845.128C996 845.608 994.636 846 992.969 846H989.937L989.362 847.5L988.786 849H984.893C982.752 849 981 849.414 981 849.921C981 850.427 979.65 851.138 978 851.5C976.35 851.862 975 852.573 975 853.079C975 853.586 973.636 854 971.969 854H968.937L968.362 855.5L967.786 857H964H960.214L959.638 858.5L959.063 860H956.531C955.139 860 954 860.43 954 860.955C954 861.48 952.425 862.205 950.5 862.566C948.575 862.927 947 863.623 947 864.111C947 864.6 945.861 865 944.469 865H941.937L941.362 866.5L940.786 868H938.393C937.077 868 936 868.43 936 868.955C936 869.48 934.425 870.205 932.5 870.566C930.575 870.927 929 871.623 929 872.111C929 872.6 927.861 873 926.469 873H923.937L923.362 874.5L922.786 876H920.322C918.966 876 917.182 876.675 916.357 877.5C915.532 878.325 913.989 879 912.929 879C911.868 879 911 879.401 911 879.892C911 880.382 909.875 881.066 908.5 881.411C907.125 881.756 906 882.48 906 883.019C906 883.559 904.636 884 902.969 884H899.937L899.362 885.5L898.786 887H896.393C895.077 887 894 887.414 894 887.921C894 888.427 892.65 889.138 891 889.5C889.35 889.862 888 890.573 888 891.079C888 891.586 887.132 892 886.071 892C885.011 892 883.468 892.675 882.643 893.5C881.818 894.325 880.034 895 878.678 895H876.214L875.638 896.5L875.063 898H872.638H870.214L869.638 899.5C869.322 900.325 868.374 901 867.531 901C866.689 901 866 901.45 866 902C866 902.55 864.923 903 863.607 903H861.214L860.638 904.5C860.322 905.325 859.374 906 858.531 906C857.689 906 857 906.401 857 906.892C857 907.382 855.875 908.066 854.5 908.411C853.125 908.756 852 909.48 852 910.019C852 910.559 850.65 911 849 911H846V912.5V914H844C842.9 914 842 914.441 842 914.981C842 915.52 840.875 916.244 839.5 916.589C838.125 916.934 837 917.618 837 918.108C837 918.599 836.311 919 835.469 919C834.626 919 833.678 919.675 833.362 920.5C833.045 921.325 831.757 922 830.5 922C829.243 922 827.955 922.675 827.638 923.5C827.322 924.325 826.127 925 824.984 925C823.84 925 821.862 926.125 820.588 927.5C819.313 928.875 817.535 930 816.635 930C815.736 930 815 930.441 815 930.981C815 931.52 813.875 932.244 812.5 932.589C811.125 932.934 810 933.582 810 934.029C810 934.476 808.65 935.138 807 935.5C805.35 935.862 804 936.573 804 937.079C804 937.586 803.325 938 802.5 938C801.675 938 801 938.675 801 939.5V941H799C797.9 941 797 941.441 797 941.981C797 942.52 795.875 943.244 794.5 943.589C793.125 943.934 792 944.618 792 945.108C792 945.599 791.325 946 790.5 946C789.675 946 789 946.675 789 947.5V949H787.083C786.029 949 784.966 949.563 784.72 950.25L784.274 951.5L783.387 950.667L782.5 949.834L782.232 814.715L781.965 679.596L780.732 678.813C780.055 678.383 774.212 678.024 767.75 678.015L756 678L755.985 813.25L755.969 948.5L754.909 950L753.848 951.5L753.341 950.25C753.062 949.563 752.244 949 751.524 949C750.803 949 749.955 948.325 749.638 947.5C749.322 946.675 748.374 946 747.531 946C746.689 946 746 945.599 746 945.108C746 944.618 744.875 943.934 743.5 943.589C742.125 943.244 741 942.52 741 941.981C741 941.441 740.373 941 739.607 941C738.841 941 737.955 940.325 737.638 939.5C737.322 938.675 736.127 938 734.984 938C733.84 938 731.913 936.945 730.702 935.656C729.491 934.366 727.263 933.008 725.75 932.636C724.237 932.265 723 931.52 723 930.981C723 930.441 722.325 930 721.5 930C720.675 930 720 929.599 720 929.108C720 928.618 718.837 927.925 717.415 927.568C715.993 927.211 713.804 925.812 712.55 924.46L710.271 922H707.635H705V920.5V919H703C701.9 919 701 918.559 701 918.019C701 917.48 699.875 916.756 698.5 916.411C697.125 916.066 696 915.382 696 914.892C696 914.401 695.311 914 694.469 914C693.626 914 692.678 913.325 692.362 912.5L691.786 911H689.393C688.077 911 687 910.55 687 910C687 909.45 686.311 909 685.469 909C684.626 909 683.678 908.325 683.362 907.5L682.786 906H680.362H677.937L677.362 904.5L676.786 903H674.393C673.077 903 672 902.586 672 902.079C672 901.573 670.65 900.862 669 900.5C667.35 900.138 666 899.463 666 899C666 898.537 664.65 897.862 663 897.5C661.35 897.138 660 896.427 660 895.921C660 895.414 659.325 895 658.5 895C657.675 895 657 894.586 657 894.079C657 893.573 655.65 892.862 654 892.5C652.35 892.138 651 891.463 651 891C651 890.537 649.65 889.862 648 889.5C646.35 889.138 645 888.427 645 887.921C645 887.414 644.132 887 643.071 887C642.011 887 640.468 886.325 639.643 885.5C638.818 884.675 637.436 884 636.571 884C635.707 884 635 883.555 635 883.012C635 882.468 633.2 881.736 631 881.384C628.8 881.032 627 880.352 627 879.872C627 879.392 626.132 879 625.071 879C624.011 879 622.468 878.325 621.643 877.5C620.818 876.675 619.034 876 617.678 876H615.214L614.638 874.5L614.063 873H611.531C610.139 873 609 872.55 609 872C609 871.45 608.132 871 607.071 871C606.011 871 604.544 870.401 603.812 869.669C603.079 868.936 601.247 868.028 599.74 867.65C598.233 867.271 597 866.52 597 865.981C597 865.441 595.65 865 594 865C592.35 865 591 864.57 591 864.045C591 863.52 589.425 862.795 587.5 862.434C585.575 862.073 584 861.377 584 860.889C584 860.4 582.875 860 581.5 860H579V858.5V857H574.607H570.214L569.638 855.5L569.063 854H566.531C565.139 854 564 853.55 564 853C564 852.45 563.132 852 562.071 852C561.011 852 559.468 851.325 558.643 850.5L557.143 849H553.178H549.214L548.638 847.5L548.063 846H545.531C544.139 846 543 845.578 543 845.061C543 844.545 540.975 843.819 538.5 843.448C536.025 843.077 534 842.374 534 841.886C534 841.399 532.698 841 531.107 841H528.214L527.638 839.5L527.063 838H523.138H519.214L518.638 836.5L518.063 835H514.031H510V834C510 833.45 509.132 833 508.071 833C507.011 833 505.468 832.325 504.643 831.5L503.143 830H499.178H495.214L494.638 828.5L494.063 827H490.031C487.814 827 486 826.578 486 826.061C486 825.545 483.975 824.819 481.5 824.448C479.025 824.077 477 823.374 477 822.886C477 822.399 475.688 822 474.083 822C472.479 822 470.998 821.493 470.791 820.873C470.584 820.253 467.959 819.516 464.958 819.234C461.956 818.952 459.227 818.3 458.894 817.785C458.561 817.27 456.423 816.598 454.144 816.293C451.865 815.987 450 815.405 450 815C450 814.595 448.097 814.008 445.772 813.696C443.446 813.384 441.383 812.65 441.188 812.065L440.833 811H436.417C433.988 811 432 810.608 432 810.129C432 809.65 429.75 808.959 427 808.594C424.25 808.23 422 807.554 422 807.093C422 806.632 419.657 806.029 416.792 805.754C413.928 805.479 411.416 804.747 411.209 804.127L410.833 803H405H399.167L398.783 801.849L398.399 800.698L392.7 800.225C389.565 799.965 387 799.402 387 798.974C387 798.546 384.3 797.883 381 797.5C377.7 797.117 375 796.398 375 795.902C375 795.406 372.348 795 369.107 795H363.214L362.638 793.5L362.063 792H355.031H348V791.08C348 790.573 345.075 789.846 341.5 789.463C337.925 789.08 335 788.422 335 788C335 787.578 331.991 787.041 328.314 786.807L321.627 786.381L321.23 785.191L320.833 784H313.5H306.167L305.833 783.008C305.65 782.462 302.012 781.721 297.75 781.361C293.488 781.001 290 780.389 290 780C290 779.612 285.622 779.033 280.272 778.713L270.544 778.133L270.189 777.067L269.833 776L261.667 775.989L253.5 775.978L248.591 774.489L243.682 773H233.841H224V772.113V771.226L209 770.5L194 769.774V768.887C194 768.399 192.912 768 191.582 768C190.252 768 188.452 767.727 187.582 767.393L186 766.786V395.393V24H227.917H269.833L270.217 25.151ZM160.429 114.571L162 116.143V449.648V783.154L165.052 786.206L168.103 789.257L172.552 789.759C174.998 790.034 177 790.652 177 791.13V792L191.25 792.015L205.5 792.03L209.5 793.471L213.5 794.912L223.75 794.956L234 795V795.88C234 796.364 239.175 797.084 245.5 797.479C251.825 797.874 257 798.558 257 798.999C257 799.44 261.125 799.958 266.167 800.151L275.334 800.5L275.75 801.75L276.167 803H286H295.833L296.167 803.992C296.35 804.538 299.988 805.279 304.25 805.639C308.512 805.999 312 806.613 312 807.003C312 807.393 315.262 808.015 319.25 808.384C323.238 808.753 326.65 809.493 326.833 810.027C327.017 810.562 329.743 811 332.892 811H338.618L340.559 812.468L342.5 813.936L348.25 813.968C351.413 813.986 354 814.387 354 814.86C354 815.333 356.58 815.987 359.734 816.312C362.888 816.637 365.625 817.375 365.817 817.952L366.167 819L371.333 819.032L376.5 819.064L378.441 820.532L380.382 822H385.108H389.833L390.209 823.127C390.416 823.747 392.928 824.479 395.792 824.754C398.657 825.029 401 825.647 401 826.127C401 826.607 403.25 827 406 827H411V828.5V830H415.417H419.833L420.217 831.151L420.601 832.302L426.3 832.775C429.435 833.035 432 833.583 432 833.992C432 834.402 433.903 834.992 436.228 835.304C438.554 835.616 440.617 836.35 440.812 836.935C441.007 837.521 442.961 838 445.155 838H449.143L450.643 839.5C451.468 840.325 453.686 841 455.571 841C457.457 841 459 841.398 459 841.885C459 842.371 461.475 843.079 464.5 843.457C467.525 843.835 470 844.562 470 845.072C470 845.582 471.575 846 473.5 846H477V847.5V849H481.417H485.833L486.188 850.065C486.383 850.65 488.446 851.384 490.772 851.696C493.097 852.008 495 852.597 495 853.004C495 853.411 496.8 854.032 499 854.384C501.2 854.736 503 855.468 503 856.012C503 856.555 504.382 857 506.071 857C507.761 857 509.818 857.675 510.643 858.5C511.468 859.325 513.686 860 515.571 860C517.457 860 519 860.414 519 860.921C519 861.427 520.35 862.138 522 862.5C523.65 862.862 525 863.573 525 864.079C525 864.586 527.025 865 529.5 865H534V866.5V868H536.917C538.521 868 539.993 868.479 540.188 869.065C540.383 869.65 542.446 870.384 544.772 870.696C547.097 871.008 549 871.654 549 872.132C549 872.609 550.139 873 551.531 873H554.063L554.638 874.5L555.214 876H558.19H561.167L560.756 877.25C560.531 877.938 558.975 878.637 557.298 878.804L554.251 879.108L552.697 877.554L551.143 876H545.678H540.214L539.638 874.5L539.063 873H534.531C532.039 873 530 872.594 530 872.098C530 871.602 527.3 870.883 524 870.5C520.7 870.117 518 869.398 518 868.902C518 868.406 515.638 867.986 512.75 867.968L507.5 867.936L505.559 866.468L503.618 865H497.809C494.614 865 492 864.615 492 864.144C492 863.673 488.757 862.986 484.793 862.617C480.829 862.249 477.341 861.57 477.043 861.108C476.744 860.646 473.823 860.051 470.55 859.785L464.601 859.302L464.217 858.151L463.833 857H456.5H449.167L448.828 855.985C448.642 855.427 445.455 854.687 441.745 854.341C438.035 853.994 435 853.39 435 852.999C435 852.608 431.737 851.985 427.75 851.616C423.762 851.247 420.35 850.507 420.167 849.973L419.833 849H412.5H405.167L404.777 847.831L404.387 846.662L395.694 846.205C390.912 845.955 387 845.403 387 844.981C387 844.558 382.95 843.892 378 843.5C373.05 843.108 369 842.385 369 841.894V841H360.626H352.251L348 839.5L343.749 838H334.958H326.167L325.825 836.976L325.484 835.953L313.742 835.323C307.284 834.977 302 834.371 302 833.975C302 833.58 296.963 833.049 290.806 832.796L279.611 832.334L279.222 831.167L278.833 830H264H249.167L248.75 828.75L248.334 827.5L227.667 827.147C216.3 826.953 207 826.445 207 826.017C207 825.589 192.15 824.906 174 824.5L141 823.761V822.881V822H129.117H117.233L116.867 820.25C116.665 819.287 116.616 660.438 116.757 467.25L117.014 116H118.507C119.328 116 120 115.564 120 115.031V114.062L132.25 113.747C138.988 113.574 147.73 113.335 151.679 113.216L158.857 113L160.429 114.571ZM1417.75 114.75C1417.98 115.438 1418.8 116 1419.58 116H1421L1421.12 229.75C1421.22 320.336 1421.14 818.216 1421.03 822.587L1421 823.675L1374.8 824.352L1328.6 825.029L1328.05 825.899C1327.75 826.377 1319.66 826.946 1310.07 827.163L1292.65 827.557L1292.24 828.778L1291.83 830H1277H1262.17L1261.76 831.208L1261.36 832.415L1248.18 832.826C1240.93 833.052 1235 833.565 1235 833.966C1235 834.368 1229.27 834.967 1222.27 835.298L1209.53 835.899L1209.18 836.95L1208.83 838H1199.61H1190.38L1188.44 839.468L1186.5 840.936L1177.75 840.968L1169 841V841.92C1169 842.426 1164.5 843.159 1159 843.549C1153.5 843.939 1149 844.586 1149 844.988C1149 845.389 1145.08 845.963 1140.28 846.262L1131.56 846.806L1131.2 847.903L1130.83 849H1123.5H1116.17L1115.83 849.992C1115.65 850.538 1112.01 851.279 1107.75 851.639C1103.49 851.999 1100 852.617 1100 853.012C1100 853.408 1096.75 853.963 1092.79 854.247L1085.58 854.763L1085.21 855.882L1084.83 857H1078H1071.17L1070.78 858.172L1070.39 859.345L1064.19 859.792C1060.79 860.039 1058 860.592 1058 861.022C1058 861.452 1055.3 862.117 1052 862.5C1048.7 862.883 1046 863.602 1046 864.098C1046 864.594 1043.39 865 1040.19 865H1034.38L1032.44 866.468L1030.5 867.936L1025.33 867.968L1020.17 868L1019.78 869.151L1019.4 870.302L1013.7 870.775C1010.56 871.035 1008 871.642 1008 872.124C1008 872.606 1005.96 873 1003.47 873H998.937L998.362 874.5L997.786 876H993.393C990.977 876 989 876.392 989 876.872C989 877.998 981.644 879.184 979.579 878.392C977.12 877.448 977.721 876 980.571 876C981.986 876 983.818 875.325 984.643 874.5C985.468 873.675 987.011 873 988.071 873C989.132 873 990 872.608 990 872.128C990 871.648 991.8 870.968 994 870.616C996.2 870.264 998 869.532 998 868.988C998 868.445 999.364 868 1001.03 868H1004.06L1004.64 866.5L1005.21 865H1008.11C1009.7 865 1011 864.608 1011 864.128C1011 863.648 1012.8 862.968 1015 862.616C1017.2 862.264 1019 861.532 1019 860.988C1019 860.445 1020.36 860 1022.03 860H1025.06L1025.64 858.5L1026.21 857H1030.18H1034.14L1035.64 855.5C1036.47 854.675 1038.46 854 1040.07 854C1041.68 854 1043 853.609 1043 853.132C1043 852.654 1044.9 852.008 1047.23 851.696C1049.55 851.384 1051.62 850.65 1051.81 850.065C1052.01 849.479 1053.51 849 1055.16 849C1056.8 849 1058.82 848.325 1059.64 847.5C1060.47 846.675 1062.69 846 1064.57 846C1066.46 846 1068 845.601 1068 845.114C1068 844.626 1070.03 843.923 1072.5 843.552C1074.97 843.181 1077 842.455 1077 841.939C1077 841.422 1079.03 841 1081.5 841H1086V839.5V838H1091.39H1096.79L1097.36 836.5L1097.94 835H1100.97C1102.64 835 1104 834.55 1104 834V833H1108.43H1112.86L1114.36 831.5L1115.86 830H1120.34H1124.83L1125.21 828.873C1125.42 828.253 1127.93 827.521 1130.79 827.246C1133.66 826.971 1136 826.411 1136 826.002C1136 825.593 1138.7 824.953 1142 824.58C1145.3 824.206 1148 823.473 1148 822.95C1148 822.428 1150.16 822 1152.81 822H1157.62L1159.56 820.532L1161.5 819.064L1166.75 819.032C1169.64 819.014 1172 818.594 1172 818.098C1172 817.602 1174.7 816.883 1178 816.5C1181.3 816.117 1184 815.398 1184 814.902C1184 814.406 1185.91 813.997 1188.25 813.994C1190.59 813.99 1193.79 813.315 1195.36 812.494L1198.23 811H1204.53H1210.83L1211.22 809.849L1211.6 808.698L1217.3 808.225C1220.44 807.965 1223 807.424 1223 807.023C1223 806.622 1226.49 805.999 1230.75 805.639C1235.01 805.279 1238.65 804.538 1238.83 803.992L1239.17 803H1247.5H1255.83L1256.25 801.753L1256.66 800.507L1265.33 800.151C1270.1 799.955 1274 799.441 1274 799.008C1274 798.575 1279.4 797.897 1286 797.5C1292.6 797.103 1298 796.379 1298 795.889V795L1309.75 794.994L1321.5 794.988L1324.36 793.494L1327.23 792H1342.61H1358V791.12C1358 790.636 1360.65 790.049 1363.88 789.815L1369.76 789.389L1372.87 786.284L1375.98 783.178L1376.01 448.73C1376.03 264.784 1376.38 113.951 1376.78 113.547C1377.17 113.142 1386.46 112.966 1397.42 113.156L1417.33 113.5L1417.75 114.75ZM296.607 304.582C296.273 305.452 296 336.952 296 374.582V443H295H294V447V451H295H296V544.417V637.833L294.75 638.417L293.5 639L294.75 639.583C295.438 639.904 296 640.804 296 641.583V643H436H576V608V573H574.583C573.804 573 573.017 572.598 572.833 572.106L572.5 571.213L482.751 570.856L393.002 570.5L393.001 438.472L393 306.444L390.989 304.722L388.977 303H343.096H297.214L296.607 304.582ZM619.75 305.083L618 307V390V473H619H620V558V643H769.06H918.121L917.81 608.963L917.5 574.925L916 573.978L914.5 573.031L815.867 573.015L717.233 573L716.788 571.25C716.543 570.288 716.486 555.1 716.663 537.5C716.839 519.9 716.987 504.938 716.992 504.25L717 503H803.5H890V470.5V438H888.583C887.804 438 886.979 437.438 886.75 436.75L886.333 435.5H802.131H717.928L716.979 434L716.031 432.5L716.015 402.75L716 373H812.071H908.143L909.457 371.686L910.772 370.371L911.511 342.263C911.917 326.803 911.936 311.645 911.553 308.577L910.856 303L766.178 303.083L621.5 303.167L619.75 305.083ZM947.682 308.75C947.353 311.913 947.362 327.663 947.702 343.75L948.321 373H1003.66H1059V374C1059 374.55 1060.09 375 1061.42 375C1062.75 375 1064.55 375.273 1065.42 375.607L1067 376.214V446.107V516H1066H1065V526V536H1066H1067V545V554H1066H1065V598.5V643H1114H1163V509.722V376.444L1165.01 374.722L1167.02 373H1223.51H1280V338V303H1114.14H948.28L947.682 308.75ZM567 880C567 880.55 566.325 881 565.5 881C564.675 881 564 880.55 564 880C564 879.45 564.675 879 565.5 879C566.325 879 567 879.45 567 880ZM977 880C977 880.55 975.875 881 974.5 881C973.125 881 972 880.55 972 880C972 879.45 973.125 879 974.5 879C975.875 879 977 879.45 977 880ZM914 923C914 923.55 913.55 924 913 924C912.45 924 912 923.55 912 923C912 922.45 912.45 922 913 922C913.55 922 914 922.45 914 923Z" fill="#5261BC"/>
</svg>
